<?xml version="1.0" standalone="no"?>
<!DOCTYPE svg PUBLIC "-//W3C//DTD SVG 20010904//EN"
 "http://www.w3.org/TR/2001/REC-SVG-20010904/DTD/svg10.dtd">
<svg version="1.0" xmlns="http://www.w3.org/2000/svg"
 width="700.000000pt" height="700.000000pt" viewBox="0 0 700.000000 700.000000"
 preserveAspectRatio="xMidYMid meet">
<metadata>
Created by potrace 1.14, written by Peter Selinger 2001-2017
</metadata>
<g transform="translate(0.000000,700.000000) scale(0.100000,-0.100000)"
fill="#000000" stroke="none">
<path d="M0 5822 l0 -1177 450 -450 450 -450 0 1178 0 1177 1177 0 1178 0
-450 450 -450 450 -1177 0 -1178 0 0 -1178z"/>
<path d="M4195 6550 l-450 -450 1178 0 1177 0 0 -1177 0 -1178 450 450 450
450 0 1177 0 1178 -1178 0 -1177 0 -450 -450z"/>
<path d="M448 2803 l-448 -448 0 -1178 0 -1177 1178 0 1177 0 450 450 450 450
-1178 0 -1177 0 -2 1175 -3 1175 -447 -447z"/>
<path d="M6100 2077 l0 -1177 -1177 0 -1178 0 450 -450 450 -450 1177 0 1178
0 0 1178 0 1177 -450 450 -450 450 0 -1178z"/>
</g>
</svg>
