<svg width="24" height="24" viewBox="0 0 24 24" fill="none" xmlns="http://www.w3.org/2000/svg">
<path fill-rule="evenodd" clip-rule="evenodd" d="M6.75 2C6.75 1.58579 6.41421 1.25 6 1.25C5.58579 1.25 5.25 1.58579 5.25 2V4.25142C4.1006 4.25856 3.44614 4.30146 2.92313 4.55938C2.33084 4.85147 1.85147 5.33084 1.55938 5.92313C1.25 6.5505 1.25 7.367 1.25 9C1.25 10.633 1.25 11.4495 1.55938 12.0769C1.85147 12.6692 2.33084 13.1485 2.92313 13.4406C3.5505 13.75 4.367 13.75 6 13.75C7.633 13.75 8.4495 13.75 9.07687 13.4406C9.66916 13.1485 10.1485 12.6692 10.4406 12.0769C10.75 11.4495 10.75 10.633 10.75 9C10.75 7.367 10.75 6.5505 10.4406 5.92313C10.1485 5.33084 9.66916 4.85147 9.07687 4.55938C8.55386 4.30146 7.8994 4.25856 6.75 4.25142V2ZM18.75 2C18.75 1.58579 18.4142 1.25 18 1.25C17.5858 1.25 17.25 1.58579 17.25 2V8C17.25 8.41421 17.5858 8.75 18 8.75C18.4142 8.75 18.75 8.41421 18.75 8V2ZM6.75 16C6.75 15.5858 6.41421 15.25 6 15.25C5.58579 15.25 5.25 15.5858 5.25 16V22C5.25 22.4142 5.58579 22.75 6 22.75C6.41421 22.75 6.75 22.4142 6.75 22V16ZM17.25 19.7486C16.1006 19.7414 15.4461 19.6985 14.9231 19.4406C14.3308 19.1485 13.8515 18.6692 13.5594 18.0769C13.25 17.4495 13.25 16.633 13.25 15C13.25 13.367 13.25 12.5505 13.5594 11.9231C13.8515 11.3308 14.3308 10.8515 14.9231 10.5594C15.5505 10.25 16.367 10.25 18 10.25C19.633 10.25 20.4495 10.25 21.0769 10.5594C21.6692 10.8515 22.1485 11.3308 22.4406 11.9231C22.75 12.5505 22.75 13.367 22.75 15C22.75 16.633 22.75 17.4495 22.4406 18.0769C22.1485 18.6692 21.6692 19.1485 21.0769 19.4406C20.5539 19.6985 19.8994 19.7414 18.75 19.7486V22C18.75 22.4142 18.4142 22.75 18 22.75C17.5858 22.75 17.25 22.4142 17.25 22V19.7486Z" fill="white"/>
</svg>
