<svg width="24" height="24" viewBox="0 0 24 24" fill="none" xmlns="http://www.w3.org/2000/svg">
<path d="M4.79292 13C3.44179 10.7109 2.54788 8.04699 2.18421 5.08119C2.07767 4.21233 2.02441 3.77791 2.18022 3.33555C2.34048 2.88055 2.74541 2.42294 3.17752 2.20849C3.59762 2 4.09459 2 5.08854 2V2C5.89832 2 6.30321 2 6.6445 2.12877C7.02426 2.27206 7.35144 2.52752 7.58256 2.86119C7.79026 3.16105 7.88846 3.55385 8.08486 4.33946L8.20715 4.82862C8.49761 5.99044 8.64284 6.57135 8.62096 7.14144C8.60158 7.64628 8.48674 8.14289 8.28251 8.60499C8.05189 9.1268 7.66637 9.58498 6.89534 10.5013L4.79292 13ZM4.79292 13C6.24802 15.4652 8.23342 17.4956 10.6579 19M10.6579 19C13.0221 20.467 15.8039 21.4338 18.9186 21.8158C19.7876 21.9223 20.2221 21.9756 20.6644 21.8198C21.1194 21.6595 21.5771 21.2546 21.7915 20.8225C22 20.4024 22 19.8953 22 18.8811V18.8811C22 18.0916 22 17.6968 21.8712 17.3555C21.7279 16.9757 21.4725 16.6486 21.1388 16.4174C20.8389 16.2097 20.4461 16.1115 19.6605 15.9151L18.9522 15.7381C17.8677 15.4669 17.3254 15.3313 16.7897 15.3428C16.3151 15.3529 15.8462 15.4474 15.4047 15.6219C14.9064 15.8188 14.459 16.1539 13.5641 16.8239L10.6579 19Z" stroke="white" stroke-width="1.5" stroke-linecap="round" stroke-linejoin="round"/>
</svg>
