<svg width="24" height="24" viewBox="0 0 24 24" fill="none" xmlns="http://www.w3.org/2000/svg">
<path d="M9.5 10C9.5 10.2761 9.27614 10.5 9 10.5C8.72386 10.5 8.5 10.2761 8.5 10M9.5 10C9.5 9.72386 9.27614 9.5 9 9.5C8.72386 9.5 8.5 9.72386 8.5 10M9.5 10H8.5M15.5 10C15.5 10.2761 15.2761 10.5 15 10.5C14.7239 10.5 14.5 10.2761 14.5 10M15.5 10C15.5 9.72386 15.2761 9.5 15 9.5C14.7239 9.5 14.5 9.72386 14.5 10M15.5 10H14.5M16.0002 15C15.088 16.2144 13.6357 17 11.9999 17C10.3641 17 8.91172 16.2144 7.99951 15M12 22V22C17.5228 22 22 17.5228 22 12V12C22 6.47715 17.5228 2 12 2V2C6.47715 2 2 6.47715 2 12V12C2 17.5228 6.47715 22 12 22Z" stroke="white" stroke-width="1.5" stroke-linecap="round" stroke-linejoin="round"/>
</svg>
