<svg width="24" height="24" viewBox="0 0 24 24" fill="none" xmlns="http://www.w3.org/2000/svg">
<path d="M9.13784 4.72433C10.0591 2.8819 10.5197 1.96069 11.143 1.66508C11.6854 1.40782 12.3146 1.40782 12.8571 1.66508C13.4804 1.96069 13.941 2.88191 14.8622 4.72434L15.2215 5.4429C15.5059 6.01177 15.6481 6.29621 15.8562 6.51399C16.0403 6.70676 16.2612 6.86077 16.5058 6.96694C16.782 7.08689 17.0981 7.12201 17.7302 7.19225L18.0564 7.22849C20.2646 7.47385 21.3687 7.59653 21.8677 8.10561C22.3013 8.54802 22.5055 9.16639 22.4205 9.78001C22.3227 10.4861 21.5086 11.242 19.8805 12.7539L19.5361 13.0736C18.9804 13.5897 18.7025 13.8477 18.5419 14.1604C18.4 14.4368 18.3244 14.7424 18.3211 15.0531C18.3174 15.4046 18.4446 15.7671 18.699 16.4921V16.4921C19.5294 18.8587 19.9446 20.042 19.673 20.7338C19.4374 21.3339 18.927 21.7836 18.3021 21.9418C17.5816 22.1241 16.4767 21.5717 14.267 20.4668L13.4311 20.0489C12.9064 19.7865 12.644 19.6553 12.3688 19.6037C12.1251 19.558 11.8749 19.558 11.6312 19.6037C11.356 19.6553 11.0937 19.7865 10.5689 20.0489L9.73299 20.4668C7.52325 21.5717 6.41838 22.1241 5.69791 21.9418C5.07298 21.7836 4.56261 21.3339 4.32703 20.7338C4.05543 20.042 4.47062 18.8587 5.30101 16.4921V16.4921C5.55541 15.7671 5.68261 15.4046 5.67891 15.0531C5.67565 14.7424 5.60005 14.4368 5.45811 14.1604C5.29751 13.8477 5.01964 13.5897 4.46388 13.0736L4.11954 12.7539C2.49141 11.242 1.67734 10.4861 1.57953 9.78001C1.49453 9.16639 1.69867 8.54802 2.13229 8.10561C2.63127 7.59653 3.73538 7.47385 5.9436 7.22849L6.26976 7.19225C6.90189 7.12201 7.21795 7.08689 7.49423 6.96694C7.73879 6.86077 7.95965 6.70676 8.14383 6.51399C8.35189 6.29621 8.49411 6.01178 8.77855 5.44291L9.13784 4.72433Z" stroke="white" stroke-width="1.5" stroke-linecap="round" stroke-linejoin="round"/>
</svg>
