<svg width="27" height="23" viewBox="0 0 27 23" fill="none" xmlns="http://www.w3.org/2000/svg">
<path fill-rule="evenodd" clip-rule="evenodd" d="M2.09032 9.49238C9.23257 6.38062 13.9952 4.32915 16.3782 3.33799C23.1821 0.508004 24.5959 0.0164059 25.5174 0.000173079C25.72 -0.00339716 26.1732 0.0468313 26.4667 0.285019C26.7146 0.486139 26.7828 0.757824 26.8154 0.948509C26.8481 1.13919 26.8887 1.57358 26.8564 1.91299C26.4877 5.78702 24.8923 15.1883 24.0807 19.5273C23.7372 21.3632 23.061 21.9788 22.4063 22.0391C20.9836 22.17 19.9032 21.0988 18.5252 20.1955C16.3688 18.782 15.1507 17.9021 13.0576 16.5228C10.6387 14.9288 12.2067 14.0527 13.5853 12.6209C13.9461 12.2462 20.2148 6.54427 20.3361 6.02702C20.3513 5.96233 20.3654 5.72119 20.2221 5.59386C20.0788 5.46653 19.8674 5.51007 19.7148 5.5447C19.4986 5.59379 16.0538 7.87064 9.3806 12.3753C8.40282 13.0467 7.51718 13.3738 6.72367 13.3567C5.84889 13.3378 4.16618 12.8621 2.91525 12.4554C1.38093 11.9567 0.16149 11.693 0.267676 10.846C0.322985 10.4048 0.930533 9.95359 2.09032 9.49238Z" fill="white"/>
</svg>
