<svg width="24" height="24" viewBox="0 0 24 24" fill="none" xmlns="http://www.w3.org/2000/svg">
<path fill-rule="evenodd" clip-rule="evenodd" d="M11.5 1.25H11.467C9.86193 1.25 8.61258 1.24999 7.6095 1.3297C6.59116 1.41062 5.76264 1.57719 5.01455 1.94611C3.68188 2.60331 2.60331 3.68188 1.94611 5.01455C1.57719 5.76264 1.41062 6.59116 1.3297 7.6095C1.24999 8.61258 1.25 9.86193 1.25 11.467V11.5V12.4V12.4339C1.25 14.0854 1.24999 15.3708 1.33424 16.4019C1.41977 17.4488 1.59588 18.2994 1.98571 19.0644C2.63285 20.3345 3.66547 21.3671 4.93556 22.0143C5.70065 22.4041 6.55124 22.5802 7.59814 22.6658C7.62893 22.6683 7.65995 22.6707 7.69119 22.6731C8.95023 22.7706 10.2172 22.7625 11.4814 22.7544C11.789 22.7524 12.0963 22.7505 12.4034 22.75H12.5H12.5329C14.1381 22.75 15.3874 22.75 16.3905 22.6703C17.4088 22.5894 18.2374 22.4228 18.9854 22.0539C20.3181 21.3967 21.3967 20.3181 22.0539 18.9854C22.4228 18.2374 22.5894 17.4088 22.6703 16.3905C22.75 15.3874 22.75 14.1381 22.75 12.5329V12.5V12C22.75 11.5858 22.4142 11.25 22 11.25C21.5858 11.25 21.25 11.5858 21.25 12V12.5C21.25 14.145 21.2494 15.3349 21.175 16.2717C21.1743 16.281 21.1735 16.2904 21.1728 16.2997L20.046 15.1729C19.2814 14.4083 18.8991 14.026 18.461 13.8758C18.0406 13.7316 17.5841 13.7316 17.1637 13.8758C16.7256 14.026 16.3433 14.4083 15.5786 15.1729C15.2014 15.5502 15.0128 15.7388 14.7962 15.8141C14.5883 15.8864 14.3624 15.8881 14.1534 15.8189C13.9357 15.7468 13.7443 15.561 13.3616 15.1893L11.2543 13.1434C10.4613 12.3735 10.0648 11.9886 9.61112 11.8463C9.21196 11.7212 8.7836 11.7243 8.38633 11.8554C7.93478 12.0043 7.54402 12.3951 6.76249 13.1766L6.76249 13.1766L2.91499 17.0241C2.87981 16.7991 2.85155 16.5526 2.82925 16.2797C2.75058 15.3168 2.75 14.0925 2.75 12.4V11.5C2.75 9.85498 2.75055 8.66506 2.82499 7.72832C2.89876 6.79997 3.04157 6.18463 3.29142 5.67798C3.80257 4.64146 4.64146 3.80257 5.67798 3.29142C6.18463 3.04157 6.79997 2.89876 7.72832 2.82499C8.66506 2.75055 9.85498 2.75 11.5 2.75H12C12.4142 2.75 12.75 2.41421 12.75 2C12.75 1.58579 12.4142 1.25 12 1.25H11.5ZM18.5303 2.46967C18.2374 2.17678 17.7626 2.17678 17.4697 2.46967L14.9697 4.96967C14.6768 5.26256 14.6768 5.73744 14.9697 6.03033C15.2626 6.32322 15.7374 6.32322 16.0303 6.03033L17.25 4.81066V9C17.25 9.41421 17.5858 9.75 18 9.75C18.4142 9.75 18.75 9.41421 18.75 9V4.81066L19.9697 6.03033C20.2626 6.32322 20.7374 6.32322 21.0303 6.03033C21.3232 5.73744 21.3232 5.26256 21.0303 4.96967L18.5303 2.46967Z" fill="#2649FF"/>
</svg>
