<svg width="32" height="32" viewBox="0 0 32 32" fill="none" xmlns="http://www.w3.org/2000/svg">
<g clip-path="url(#clip0_154_3801)">
<path d="M0 15.36C0 8.1192 0 4.49884 2.24942 2.24942C4.49884 0 8.1192 0 15.36 0H16.64C23.8808 0 27.5011 0 29.7506 2.24942C32 4.49884 32 8.1192 32 15.36V16.64C32 23.8808 32 27.5011 29.7506 29.7506C27.5011 32 23.8808 32 16.64 32H15.36C8.1192 32 4.49884 32 2.24942 29.7506C0 27.5011 0 23.8808 0 16.64V15.36Z" fill="white" fill-opacity="0.12"/>
<path d="M17.0265 23.0534C9.73317 23.0534 5.57324 18.0534 5.3999 9.7334H9.05324C9.17324 15.8401 11.8665 18.4267 13.9998 18.9601V9.7334H17.44V15.0001C19.5466 14.7734 21.7597 12.3734 22.5064 9.7334H25.9464C25.3731 12.9867 22.9731 15.3867 21.2664 16.3734C22.9731 17.1734 25.7066 19.2667 26.7466 23.0534H22.9598C22.1464 20.5201 20.12 18.5601 17.44 18.2934V23.0534H17.0265Z" fill="white"/>
</g>
<defs>
<clipPath id="clip0_154_3801">
<rect width="32" height="32" fill="white"/>
</clipPath>
</defs>
</svg>
