<svg width="32" height="23" viewBox="0 0 32 23" fill="none" xmlns="http://www.w3.org/2000/svg">
<path d="M31.3314 3.52C30.9634 2.13428 29.8791 1.04296 28.5021 0.672601C26.0068 -0.000488281 16 -0.000488281 16 -0.000488281C16 -0.000488281 5.99334 -0.000488281 3.49787 0.672601C2.12087 1.04296 1.03637 2.13428 0.668593 3.52C0 6.03168 0 11.2723 0 11.2723C0 11.2723 0 16.5126 0.668593 19.0245C1.03637 20.4104 2.12087 21.5014 3.49774 21.8722C5.9932 22.545 15.9999 22.545 15.9999 22.545C15.9999 22.545 26.0067 22.545 28.502 21.8722C29.879 21.5015 30.9632 20.4104 31.3313 19.0246C32 16.5127 32 11.2724 32 11.2724C32 11.2724 32 6.03181 31.3313 3.52014" fill="white" fill-opacity="0.12"/>
<path d="M12.7275 16.0301L21.0912 11.2724L12.7275 6.51416V16.0301Z" fill="white"/>
</svg>
