<svg width="195" height="42" viewBox="0 0 195 42" fill="none" xmlns="http://www.w3.org/2000/svg">
<path fill-rule="evenodd" clip-rule="evenodd" d="M5.27723 5.27723H19.0755L13.7982 0H0V13.7983L5.27723 19.0755V5.27723ZM21.9245 5.27723H35.7228V19.0755L41 13.7983V0H27.2018L21.9245 5.27723ZM35.7228 21.9245V35.7228H21.9245L27.2018 41H41V27.2017L35.7228 21.9245ZM19.0755 35.7228H5.27723V21.9245L0 27.2017V41H13.7982L19.0755 35.7228Z" fill="white"/>
<path d="M56.2912 17V3.90909H61.3026C62.2486 3.90909 63.0348 4.05824 63.6612 4.35653C64.2919 4.65057 64.7628 5.05327 65.0739 5.56463C65.3892 6.07599 65.5469 6.65554 65.5469 7.30327C65.5469 7.83594 65.4446 8.2919 65.2401 8.67116C65.0355 9.04616 64.7607 9.35085 64.4155 9.58523C64.0703 9.8196 63.6847 9.98793 63.2585 10.0902V10.218C63.723 10.2436 64.1683 10.3864 64.5945 10.6463C65.0249 10.902 65.3764 11.2642 65.6491 11.733C65.9219 12.2017 66.0582 12.7685 66.0582 13.4332C66.0582 14.1108 65.8942 14.7202 65.5661 15.2614C65.2379 15.7983 64.7436 16.2223 64.0831 16.5334C63.4226 16.8445 62.5916 17 61.5902 17H56.2912ZM58.6626 15.0185H61.2131C62.0739 15.0185 62.6939 14.8544 63.0732 14.5263C63.4567 14.1939 63.6484 13.7678 63.6484 13.2479C63.6484 12.8601 63.5526 12.5107 63.3608 12.1996C63.169 11.8842 62.8963 11.6371 62.5426 11.4581C62.1889 11.2749 61.767 11.1832 61.277 11.1832H58.6626V15.0185ZM58.6626 9.47656H61.0085C61.4176 9.47656 61.7862 9.40199 62.1143 9.25284C62.4425 9.09943 62.7003 8.88423 62.8878 8.60724C63.0795 8.32599 63.1754 7.99361 63.1754 7.61009C63.1754 7.10298 62.9964 6.68537 62.6385 6.35724C62.2848 6.02912 61.7585 5.86506 61.0597 5.86506H58.6626V9.47656ZM68.1213 3.90909H70.4735V12.8324H70.595L76.7505 3.90909H78.8791V17H76.5076V8.0831H76.399L70.2243 17H68.1213V3.90909ZM81.4631 17V3.90909H86.3722C87.3778 3.90909 88.2216 4.09659 88.9034 4.47159C89.5895 4.84659 90.1072 5.36222 90.4567 6.01847C90.8104 6.67045 90.9872 7.41193 90.9872 8.2429C90.9872 9.08239 90.8104 9.82812 90.4567 10.4801C90.103 11.1321 89.581 11.6456 88.8906 12.0206C88.2003 12.3913 87.3501 12.5767 86.3402 12.5767H83.0866V10.6271H86.0206C86.6087 10.6271 87.0902 10.5249 87.4652 10.3203C87.8402 10.1158 88.1172 9.83452 88.2962 9.47656C88.4794 9.11861 88.571 8.70739 88.571 8.2429C88.571 7.77841 88.4794 7.36932 88.2962 7.01562C88.1172 6.66193 87.8381 6.38707 87.4588 6.19105C87.0838 5.99077 86.6001 5.89062 86.0078 5.89062H83.8345V17H81.4631ZM92.4718 5.89702V3.90909H102.916V5.89702H98.8702V17H96.5179V5.89702H92.4718ZM106.1 17.179V15.1847H106.847C107.184 15.1847 107.461 15.1357 107.678 15.0376C107.896 14.9396 108.07 14.799 108.203 14.6158C108.339 14.4325 108.452 14.2195 108.541 13.9766L108.714 13.5355L104.035 3.90909H106.515L109.775 10.9148L112.594 3.90909H115.036L110.523 14.5838C110.314 15.044 110.073 15.4723 109.801 15.8686C109.528 16.2607 109.172 16.5781 108.733 16.821C108.298 17.0597 107.732 17.179 107.033 17.179H106.1ZM117.07 17H114.539L119.147 3.90909H122.075L126.69 17H124.159L120.662 6.59375H120.56L117.07 17ZM117.153 11.8672H124.056V13.772H117.153V11.8672ZM127.564 17V15.0312L127.935 15.0121C128.438 14.9822 128.836 14.8011 129.13 14.4688C129.428 14.1364 129.648 13.6016 129.789 12.8643C129.933 12.1271 130.029 11.1385 130.076 9.89844L130.294 3.90909H138.872V17H136.551V5.85866H132.505L132.301 10.6335C132.241 12.0653 132.083 13.2521 131.828 14.1939C131.576 15.1357 131.163 15.8388 130.588 16.3033C130.017 16.7678 129.222 17 128.203 17H127.564ZM143.062 8.9652H146.385C147.387 8.9652 148.246 9.12926 148.961 9.45739C149.682 9.78125 150.233 10.2393 150.617 10.8317C151.001 11.424 151.192 12.1207 151.192 12.9219C151.192 13.7273 151.001 14.4368 150.617 15.0504C150.233 15.6598 149.682 16.1371 148.961 16.4822C148.246 16.8274 147.387 17 146.385 17H141.483V3.90909H143.861V15.0568H146.385C146.914 15.0568 147.361 14.9567 147.728 14.7564C148.094 14.5561 148.371 14.2919 148.559 13.9638C148.751 13.6357 148.846 13.2798 148.846 12.8963C148.846 12.3423 148.633 11.8714 148.207 11.4837C147.785 11.0916 147.178 10.8956 146.385 10.8956H143.062V8.9652ZM153.498 17V3.90909H155.87V9.45099H161.936V3.90909H164.314V17H161.936V11.4389H155.87V17H153.498ZM168.497 8.9652H171.821C172.822 8.9652 173.681 9.12926 174.397 9.45739C175.117 9.78125 175.669 10.2393 176.053 10.8317C176.436 11.424 176.628 12.1207 176.628 12.9219C176.628 13.7273 176.436 14.4368 176.053 15.0504C175.669 15.6598 175.117 16.1371 174.397 16.4822C173.681 16.8274 172.822 17 171.821 17H166.918V3.90909H169.296V15.0568H171.821C172.349 15.0568 172.797 14.9567 173.163 14.7564C173.53 14.5561 173.807 14.2919 173.994 13.9638C174.186 13.6357 174.282 13.2798 174.282 12.8963C174.282 12.3423 174.069 11.8714 173.643 11.4837C173.221 11.0916 172.614 10.8956 171.821 10.8956H168.497V8.9652ZM180.137 3.90909V17H177.759V3.90909H180.137ZM182.713 3.90909H185.065V12.8324H185.187L191.342 3.90909H193.471V17H191.099V8.0831H190.991L184.816 17H182.713V3.90909ZM189.361 0.534091H191.093C191.093 1.27983 190.822 1.88494 190.281 2.34943C189.744 2.80966 189.016 3.03977 188.095 3.03977C187.183 3.03977 186.457 2.80966 185.915 2.34943C185.379 1.88494 185.112 1.27983 185.116 0.534091H186.836C186.836 0.840909 186.93 1.11577 187.117 1.35866C187.309 1.5973 187.635 1.71662 188.095 1.71662C188.547 1.71662 188.869 1.5973 189.06 1.35866C189.256 1.12003 189.357 0.84517 189.361 0.534091Z" fill="white"/>
<path d="M54.4411 41.1577V36.0632H55.3168C55.6108 35.8288 55.8857 35.4986 56.1413 35.0724C56.397 34.6463 56.6143 34.0625 56.7933 33.321C56.9723 32.5795 57.0959 31.6207 57.1641 30.4446L57.5092 24.9091H65.8764V36.0632H67.3338V41.1449H65.0582V38H56.7166V41.1577H54.4411ZM58.0781 36.0632H63.6009V26.897H59.6442L59.4396 30.4446C59.3842 31.3352 59.2947 32.1321 59.1712 32.8352C59.0476 33.5384 58.892 34.1584 58.7045 34.6953C58.517 35.228 58.3082 35.6839 58.0781 36.0632ZM69.2658 38V24.9091H77.78V26.897H71.6373V30.451H77.339V32.4389H71.6373V36.0121H77.8311V38H69.2658ZM80.1994 24.9091H83.1014L86.9877 34.3949H87.1412L91.0275 24.9091H93.9295V38H91.6539V29.0064H91.5325L87.9146 37.9616H86.2143L82.5964 28.9872H82.475V38H80.1994V24.9091ZM108.209 31.4545C108.209 32.8651 107.945 34.0732 107.417 35.0788C106.893 36.0803 106.177 36.8473 105.269 37.38C104.366 37.9126 103.341 38.179 102.194 38.179C101.048 38.179 100.021 37.9126 99.1135 37.38C98.21 36.843 97.4941 36.0739 96.9657 35.0724C96.4416 34.0668 96.1795 32.8608 96.1795 31.4545C96.1795 30.044 96.4416 28.8381 96.9657 27.8366C97.4941 26.831 98.21 26.0618 99.1135 25.5291C100.021 24.9964 101.048 24.7301 102.194 24.7301C103.341 24.7301 104.366 24.9964 105.269 25.5291C106.177 26.0618 106.893 26.831 107.417 27.8366C107.945 28.8381 108.209 30.044 108.209 31.4545ZM105.825 31.4545C105.825 30.4616 105.67 29.6243 105.358 28.9425C105.052 28.2564 104.626 27.7386 104.08 27.3892C103.535 27.0355 102.906 26.8587 102.194 26.8587C101.483 26.8587 100.854 27.0355 100.309 27.3892C99.7633 27.7386 99.335 28.2564 99.024 28.9425C98.7172 29.6243 98.5637 30.4616 98.5637 31.4545C98.5637 32.4474 98.7172 33.2869 99.024 33.973C99.335 34.6548 99.7633 35.1726 100.309 35.5263C100.854 35.8757 101.483 36.0504 102.194 36.0504C102.906 36.0504 103.535 35.8757 104.08 35.5263C104.626 35.1726 105.052 34.6548 105.358 33.973C105.67 33.2869 105.825 32.4474 105.825 31.4545ZM122.564 36.0185L122.392 41.0938H120.091V38H119.17V36.0185H122.564ZM110.451 38V24.9091H112.727V36.0312H118.608V24.9091H120.902V38H110.451ZM124.496 38V24.9091H133.01V26.897H126.868V30.451H132.569V32.4389H126.868V36.0121H133.062V38H124.496ZM135.43 38V24.9091H137.801V30.451H143.867V24.9091H146.245V38H143.867V32.4389H137.801V38H135.43ZM148.249 26.897V24.9091H158.694V26.897H154.648V38H152.295V26.897H148.249ZM160.707 38V24.9091H165.616C166.622 24.9091 167.466 25.0966 168.148 25.4716C168.834 25.8466 169.351 26.3622 169.701 27.0185C170.055 27.6705 170.231 28.4119 170.231 29.2429C170.231 30.0824 170.055 30.8281 169.701 31.4801C169.347 32.1321 168.825 32.6456 168.135 33.0206C167.444 33.3913 166.594 33.5767 165.584 33.5767H162.331V31.6271H165.265C165.853 31.6271 166.334 31.5249 166.709 31.3203C167.084 31.1158 167.361 30.8345 167.54 30.4766C167.724 30.1186 167.815 29.7074 167.815 29.2429C167.815 28.7784 167.724 28.3693 167.54 28.0156C167.361 27.6619 167.082 27.3871 166.703 27.1911C166.328 26.9908 165.844 26.8906 165.252 26.8906H163.079V38H160.707Z" fill="white"/>
</svg>
