<?xml version="1.0" encoding="UTF-8" standalone="no"?>
<svg
   width="24"
   height="24"
   viewBox="0 0 24 24"
   fill="none"
   version="1.1"
   id="svg1"
   sodipodi:docname="arrow-down.svg"
   inkscape:version="1.3 (0e150ed6c4, 2023-07-21)"
   xmlns:inkscape="http://www.inkscape.org/namespaces/inkscape"
   xmlns:sodipodi="http://sodipodi.sourceforge.net/DTD/sodipodi-0.dtd"
   xmlns="http://www.w3.org/2000/svg"
   xmlns:svg="http://www.w3.org/2000/svg">
  <defs
     id="defs1" />
  <sodipodi:namedview
     id="namedview1"
     pagecolor="#505050"
     bordercolor="#eeeeee"
     borderopacity="1"
     inkscape:showpageshadow="0"
     inkscape:pageopacity="0"
     inkscape:pagecheckerboard="0"
     inkscape:deskcolor="#505050"
     showgrid="false"
     inkscape:zoom="47.375"
     inkscape:cx="11.989446"
     inkscape:cy="12"
     inkscape:window-width="2560"
     inkscape:window-height="1351"
     inkscape:window-x="-9"
     inkscape:window-y="-9"
     inkscape:window-maximized="1"
     inkscape:current-layer="svg1" />
  <path
     style="color:#000000;fill:#ffffff;stroke-linecap:round;stroke-linejoin:round;-inkscape-stroke:none"
     d="M 12,2.25 A 0.75,0.75 0 0 0 11.25,3 V 19.1875 L 5.53125,13.46875 a 0.75,0.75 0 0 0 -1.0605469,0 0.75,0.75 0 0 0 0,1.0625 l 6.9999999,7 a 0.75,0.75 0 0 0 1.060547,0 l 7,-7 a 0.75,0.75 0 0 0 0,-1.0625 0.75,0.75 0 0 0 -1.0625,0 L 12.75,19.189453 V 3 A 0.75,0.75 0 0 0 12,2.25 Z"
     id="path2" />
</svg>
