<?xml version="1.0" encoding="UTF-8" standalone="no"?>
<svg
   width="24"
   height="24"
   viewBox="0 0 24 24"
   fill="none"
   version="1.1"
   id="svg1"
   sodipodi:docname="case.svg"
   inkscape:version="1.3 (0e150ed6c4, 2023-07-21)"
   xmlns:inkscape="http://www.inkscape.org/namespaces/inkscape"
   xmlns:sodipodi="http://sodipodi.sourceforge.net/DTD/sodipodi-0.dtd"
   xmlns="http://www.w3.org/2000/svg"
   xmlns:svg="http://www.w3.org/2000/svg">
  <defs
     id="defs1" />
  <sodipodi:namedview
     id="namedview1"
     pagecolor="#505050"
     bordercolor="#eeeeee"
     borderopacity="1"
     inkscape:showpageshadow="0"
     inkscape:pageopacity="0"
     inkscape:pagecheckerboard="0"
     inkscape:deskcolor="#505050"
     showgrid="false"
     inkscape:zoom="47.375"
     inkscape:cx="11.989446"
     inkscape:cy="12"
     inkscape:window-width="2560"
     inkscape:window-height="1351"
     inkscape:window-x="-9"
     inkscape:window-y="-9"
     inkscape:window-maximized="1"
     inkscape:current-layer="svg1" />
  <path
     style="color:#000000;fill:#ffffff;stroke-linecap:round;stroke-linejoin:round;-inkscape-stroke:none;fill-opacity:1"
     d="m 12,1.25 c -2.348873,0 -4.2232107,1.7539082 -4.5976563,4 H 5 C 4.0681209,5.25 3.5218517,5.2209896 2.9472656,5.4589844 2.2737131,5.7379854 1.7379854,6.2737131 1.4589844,6.9472656 1.2209896,7.5218517 1.25,8.0681209 1.25,9 c 0,0.9318791 -0.028977,1.478151 0.2089844,2.052734 0.156709,0.378282 0.5383215,0.565647 0.8359375,0.835938 A 0.75,0.75 0 0 0 2.25,12 v 3.599609 c 0,2.240198 -0.038573,3.465056 0.5175781,4.556641 0.4553645,0.893631 1.1824994,1.620816 2.0761719,2.076172 C 5.935306,22.788635 7.1601829,22.75 9.4003906,22.75 h 5.1992184 c 2.240198,0 3.46505,0.03861 4.556641,-0.517578 0.893621,-0.45536 1.620812,-1.182551 2.076172,-2.076172 C 21.788614,19.064659 21.75,17.839807 21.75,15.599609 V 12 a 0.75,0.75 0 0 0 -0.02539,-0.130859 c 0.287914,-0.266899 0.663345,-0.446947 0.816407,-0.816407 C 22.778902,10.478182 22.75,9.9318791 22.75,9 22.75,8.0681209 22.778935,7.5218212 22.541016,6.9472656 22.261989,6.2736832 21.726218,5.7379851 21.052734,5.4589844 20.47816,5.2210268 19.931899,5.25 19,5.25 H 16.597656 C 16.223206,3.0039031 14.348844,1.25 12,1.25 Z m 0,1.5 c 1.537333,0 2.755721,1.0729136 3.099609,2.5 H 8.9003906 C 9.2442694,3.8229099 10.462627,2.75 12,2.75 Z m -7,4 h 3 8 3 c 0.931899,0 1.317891,0.029181 1.478516,0.095703 0.306515,0.1269789 0.548808,0.3692647 0.675781,0.6757813 C 21.220777,7.6820281 21.25,8.0681209 21.25,9 c 0,0.9318791 -0.02919,1.317869 -0.0957,1.478516 -0.126973,0.306486 -0.369295,0.548808 -0.675781,0.675781 C 20.31786,11.220814 19.931899,11.25 19,11.25 H 16.75 V 10.5 A 0.75,0.75 0 0 0 16,9.75 0.75,0.75 0 0 0 15.25,10.5 v 0.75 H 8.75 V 10.5 A 0.75,0.75 0 0 0 8,9.75 0.75,0.75 0 0 0 7.25,10.5 v 0.75 H 5 c -0.9318791,0 -1.3179719,-0.02922 -1.4785156,-0.0957 C 3.2149678,11.027324 2.972682,10.785031 2.8457031,10.478516 2.7791847,10.3179 2.75,9.9318791 2.75,9 2.75,8.0681209 2.7792182,7.6819976 2.8457031,7.5214844 2.9726817,7.2149379 3.2149379,6.9726817 3.5214844,6.8457031 3.6819976,6.7792182 4.0681209,6.75 5,6.75 Z M 3.75,12.623047 C 4.1248223,12.668455 4.432552,12.75 5,12.75 H 7.25 V 13.5 A 0.75,0.75 0 0 0 8,14.25 0.75,0.75 0 0 0 8.75,13.5 v -0.75 h 6.5 V 13.5 A 0.75,0.75 0 0 0 16,14.25 0.75,0.75 0 0 0 16.75,13.5 V 12.75 H 19 c 0.56746,0 0.875182,-0.08155 1.25,-0.126953 v 2.976562 c 0,2.240198 -0.03771,3.255193 -0.353516,3.875 -0.311639,0.611578 -0.810297,1.110236 -1.421875,1.421875 C 17.854802,21.212291 16.839807,21.25 14.599609,21.25 H 9.4003906 c -2.2402077,0 -3.2552777,-0.03773 -3.875,-0.353516 C 4.9137646,20.584841 4.4151504,20.086177 4.1035156,19.474609 3.7877273,18.854796 3.75,17.839807 3.75,15.599609 Z"
     id="path2" />
</svg>
