<svg width="24" height="24" viewBox="0 0 24 24" fill="none" xmlns="http://www.w3.org/2000/svg">
<path opacity="0.32" d="M17.9999 7.25V10C17.9999 12.8003 17.9999 14.2004 17.4549 15.27C16.9755 16.2108 16.2106 16.9757 15.2698 17.455C14.2003 18 12.8001 18 9.99988 18H7.25C7.25 18.6967 7.25 19.0451 7.29329 19.3369C7.55182 21.0797 8.92025 22.4482 10.6631 22.7067C10.9549 22.75 11.3033 22.75 12 22.75H16.35C18.5902 22.75 19.7103 22.75 20.566 22.314C21.3186 21.9305 21.9305 21.3186 22.314 20.566C22.75 19.7103 22.75 18.5902 22.75 16.35V12.0001C22.75 11.3033 22.75 10.9549 22.7067 10.663C22.4481 8.92023 21.0798 7.55186 19.337 7.29331C19.0451 7.25 18.6967 7.25 17.9999 7.25Z" fill="white"/>
<path d="M7.65 1.25C5.40979 1.25 4.28969 1.25 3.43404 1.68597C2.68139 2.06947 2.06947 2.68139 1.68597 3.43404C1.25 4.28969 1.25 5.40979 1.25 7.65V10.35C1.25 12.5902 1.25 13.7103 1.68597 14.566C2.06947 15.3186 2.68139 15.9305 3.43404 16.314C4.28969 16.75 5.40979 16.75 7.65 16.75H10.35C12.5902 16.75 13.7103 16.75 14.566 16.314C15.3186 15.9305 15.9305 15.3186 16.314 14.566C16.75 13.7103 16.75 12.5902 16.75 10.35V7.65C16.75 5.40979 16.75 4.28969 16.314 3.43404C15.9305 2.68139 15.3186 2.06947 14.566 1.68597C13.7103 1.25 12.5902 1.25 10.35 1.25H7.65Z" fill="white"/>
</svg>
