<?xml version="1.0" encoding="UTF-8" standalone="no"?>
<svg
   width="24"
   height="24"
   viewBox="0 0 24 24"
   fill="none"
   version="1.1"
   id="svg1"
   sodipodi:docname="copy-mono.svg"
   inkscape:version="1.3 (0e150ed6c4, 2023-07-21)"
   xmlns:inkscape="http://www.inkscape.org/namespaces/inkscape"
   xmlns:sodipodi="http://sodipodi.sourceforge.net/DTD/sodipodi-0.dtd"
   xmlns="http://www.w3.org/2000/svg"
   xmlns:svg="http://www.w3.org/2000/svg">
  <defs
     id="defs1" />
  <sodipodi:namedview
     id="namedview1"
     pagecolor="#505050"
     bordercolor="#eeeeee"
     borderopacity="1"
     inkscape:showpageshadow="0"
     inkscape:pageopacity="0"
     inkscape:pagecheckerboard="0"
     inkscape:deskcolor="#505050"
     showgrid="false"
     inkscape:zoom="47.375"
     inkscape:cx="11.989446"
     inkscape:cy="12"
     inkscape:window-width="2560"
     inkscape:window-height="1351"
     inkscape:window-x="-9"
     inkscape:window-y="-9"
     inkscape:window-maximized="1"
     inkscape:current-layer="svg1" />
  <path
     style="color:#000000;fill:#ffffff;stroke-linecap:round;stroke-linejoin:round;-inkscape-stroke:none"
     d="M 8.4003906,1.25 C 6.1601829,1.25 4.9352998,1.2114062 3.84375,1.7675781 2.9500681,2.2229385 2.2229385,2.9500681 1.7675781,3.84375 1.2114062,4.9352998 1.25,6.1601829 1.25,8.4003906 v 1.1992188 c 0,2.2401976 -0.038573,3.4650556 0.5175781,4.5566406 0.4553645,0.893631 1.1824994,1.620816 2.0761719,2.076172 0.8696215,0.443124 1.9702729,0.487702 3.4550781,0.496094 0.00152,1.238621 -0.020505,2.211015 0.2558594,2.945312 0.4816748,1.279836 1.4916689,2.289859 2.7714845,2.771484 0.874543,0.329174 1.800414,0.304688 3.507812,0.304688 h 1.765625 c 2.240198,0 3.46505,0.03861 4.556641,-0.517578 0.893621,-0.45536 1.620812,-1.182551 2.076172,-2.076172 C 22.788614,19.064659 22.75,17.839807 22.75,15.599609 v -1.765625 c 0,-1.707398 0.02449,-2.633269 -0.304688,-3.507812 C 21.963687,9.0463564 20.953664,8.0363623 19.673828,7.5546875 18.939531,7.2783234 17.967137,7.3003507 16.728516,7.2988281 16.720124,5.8140229 16.675546,4.7133715 16.232422,3.84375 15.777066,2.9500775 15.049881,2.2229426 14.15625,1.7675781 13.064665,1.2114273 11.839807,1.25 9.5996094,1.25 Z m 0,1.5 h 1.1992188 c 2.2401976,0 3.2551866,0.037727 3.8749996,0.3535156 0.611568,0.3116348 1.110232,0.810249 1.421875,1.421875 0.315786,0.6197223 0.353516,1.6347923 0.353516,3.875 v 1.1992188 c 0,2.2401976 -0.03771,3.2551926 -0.353516,3.8749996 -0.311639,0.611578 -0.810297,1.110236 -1.421875,1.421875 C 12.854802,15.212291 11.839807,15.25 9.5996094,15.25 H 8.4003906 c -2.2402077,0 -3.2552777,-0.03773 -3.875,-0.353516 C 3.9137646,14.584841 3.4151504,14.086177 3.1035156,13.474609 2.7877273,12.854796 2.75,11.839807 2.75,9.5996094 V 8.4003906 c 0,-2.2402077 0.037748,-3.2552715 0.3535156,-3.875 C 3.4151545,3.913774 3.913774,3.4151545 4.5253906,3.1035156 5.1451191,2.7877484 6.1601829,2.75 8.4003906,2.75 Z M 16.75,8.7910156 c 1.100629,0.011933 2.002321,0.020354 2.394531,0.1679688 0.876362,0.3298244 1.566711,1.020182 1.896485,1.8964846 0.183626,0.487855 0.208984,1.271117 0.208984,2.978515 v 1.765625 c 0,2.240198 -0.03771,3.255193 -0.353516,3.875 -0.311639,0.611578 -0.810297,1.110236 -1.421875,1.421875 -0.619807,0.315807 -1.634802,0.353516 -3.875,0.353516 h -1.765625 c -1.707398,0 -2.49066,-0.02536 -2.978515,-0.208984 C 9.9791664,20.711242 9.2888088,20.020893 8.9589844,19.144531 8.8113699,18.752321 8.8029491,17.850629 8.7910156,16.75 h 0.8085938 c 2.2401976,0 3.4650496,0.03861 4.5566406,-0.517578 0.893621,-0.45536 1.620812,-1.182551 2.076172,-2.076172 C 16.788614,13.064659 16.75,11.839807 16.75,9.5996094 Z"
     id="path1" />
</svg>
