<?xml version="1.0" encoding="UTF-8" standalone="no"?>
<svg
   width="24"
   height="24"
   viewBox="0 0 24 24"
   fill="none"
   version="1.1"
   id="svg2"
   sodipodi:docname="delete-duotone.svg"
   inkscape:version="1.3 (0e150ed6c4, 2023-07-21)"
   xmlns:inkscape="http://www.inkscape.org/namespaces/inkscape"
   xmlns:sodipodi="http://sodipodi.sourceforge.net/DTD/sodipodi-0.dtd"
   xmlns="http://www.w3.org/2000/svg"
   xmlns:svg="http://www.w3.org/2000/svg">
  <defs
     id="defs2" />
  <sodipodi:namedview
     id="namedview2"
     pagecolor="#505050"
     bordercolor="#eeeeee"
     borderopacity="1"
     inkscape:showpageshadow="0"
     inkscape:pageopacity="0"
     inkscape:pagecheckerboard="0"
     inkscape:deskcolor="#505050"
     showgrid="false"
     inkscape:zoom="47.375"
     inkscape:cx="11.989446"
     inkscape:cy="12"
     inkscape:window-width="2560"
     inkscape:window-height="1351"
     inkscape:window-x="-9"
     inkscape:window-y="-9"
     inkscape:window-maximized="1"
     inkscape:current-layer="svg2" />
  <path
     opacity="0.12"
     d="M4.64564 15.9758L4 5H20L19.3544 15.9758C19.2296 18.0962 19.1673 19.1564 18.7147 19.961C18.3163 20.6692 17.7117 21.2394 16.9812 21.5955C16.1515 22 15.0895 22 12.9654 22H11.0346C8.91054 22 7.84851 22 7.01876 21.5955C6.28832 21.2394 5.68366 20.6692 5.28528 19.961C4.83273 19.1564 4.77037 18.0962 4.64564 15.9758Z"
     fill="#FF5966"
     id="path1" />
  <path
     style="color:#000000;fill:#ff5966;stroke-linecap:round;stroke-linejoin:round;-inkscape-stroke:none"
     d="M 10.730469,1.25 C 10.108469,1.25 9.70872,1.228913 9.2578125,1.40625 8.9073053,1.5441041 8.5970918,1.7676949 8.3554688,2.0566406 8.0446252,2.4283307 7.9388957,2.8141923 7.7421875,3.4042969 L 7.4609375,4.25 H 4 2 A 0.75,0.75 0 0 0 1.25,5 0.75,0.75 0 0 0 2,5.75 h 1.2929688 l 0.6035156,10.269531 c 0.1247298,2.120397 0.1582534,3.284293 0.734375,4.308594 0.4730304,0.840906 1.1912327,1.518555 2.0585937,1.941406 C 7.7457879,22.78449 8.9110984,22.75 11.035156,22.75 h 1.929688 c 2.124098,0 3.289405,0.0345 4.345703,-0.480469 0.867443,-0.422856 1.585562,-1.10054 2.058594,-1.941406 0.576204,-1.024335 0.609576,-2.188219 0.734375,-4.308594 L 20.707031,5.75 H 22 A 0.75,0.75 0 0 0 22.75,5 0.75,0.75 0 0 0 22,4.25 H 20 16.539062 L 16.257812,3.4042969 C 16.061125,2.8142248 15.955558,2.4284076 15.644531,2.0566406 15.402985,1.7678051 15.092762,1.5441246 14.742188,1.40625 14.291305,1.2289632 13.891531,1.25 13.269531,1.25 Z m 0,1.5 h 2.539062 c 0.622,0 0.845311,0.021861 0.923828,0.052734 0.116825,0.045945 0.220128,0.1203528 0.300782,0.2167969 0.05397,0.064513 0.145084,0.2692282 0.341797,0.859375 L 14.958984,4.25 H 9.0410156 L 9.1640625,3.8789063 C 9.3607739,3.288792 9.4518433,3.0841208 9.5058594,3.0195313 9.586416,2.9231974 9.6897683,2.8487001 9.8066406,2.8027344 9.8850125,2.7719116 10.108469,2.75 10.730469,2.75 Z m -5.9355471,3 H 19.205078 l -0.599609,10.181641 c -0.124802,2.120421 -0.215928,3.077246 -0.544922,3.662109 -0.323768,0.575533 -0.814648,1.038782 -1.408203,1.328125 C 16.049243,21.215902 15.088942,21.25 12.964844,21.25 H 11.035156 C 8.9110984,21.25 7.9508199,21.215915 7.3476562,20.921875 6.7541387,20.632527 6.2631819,20.169242 5.9394531,19.59375 5.6104756,19.008853 5.5192612,18.05204 5.3945312,15.931641 Z M 10,9.25 A 0.75,0.75 0 0 0 9.25,10 v 7 A 0.75,0.75 0 0 0 10,17.75 0.75,0.75 0 0 0 10.75,17 V 10 A 0.75,0.75 0 0 0 10,9.25 Z m 4,0 A 0.75,0.75 0 0 0 13.25,10 v 4 A 0.75,0.75 0 0 0 14,14.75 0.75,0.75 0 0 0 14.75,14 V 10 A 0.75,0.75 0 0 0 14,9.25 Z"
     id="path2" />
</svg>
