<?xml version="1.0" encoding="UTF-8" standalone="no"?>
<svg
   width="24"
   height="24"
   viewBox="0 0 24 24"
   fill="none"
   version="1.1"
   id="svg1"
   sodipodi:docname="edit.svg"
   inkscape:version="1.3 (0e150ed6c4, 2023-07-21)"
   xmlns:inkscape="http://www.inkscape.org/namespaces/inkscape"
   xmlns:sodipodi="http://sodipodi.sourceforge.net/DTD/sodipodi-0.dtd"
   xmlns="http://www.w3.org/2000/svg"
   xmlns:svg="http://www.w3.org/2000/svg">
  <defs
     id="defs1" />
  <sodipodi:namedview
     id="namedview1"
     pagecolor="#505050"
     bordercolor="#eeeeee"
     borderopacity="1"
     inkscape:showpageshadow="0"
     inkscape:pageopacity="0"
     inkscape:pagecheckerboard="0"
     inkscape:deskcolor="#505050"
     showgrid="false"
     inkscape:zoom="47.375"
     inkscape:cx="11.989446"
     inkscape:cy="12"
     inkscape:window-width="2560"
     inkscape:window-height="1351"
     inkscape:window-x="-9"
     inkscape:window-y="-9"
     inkscape:window-maximized="1"
     inkscape:current-layer="svg1" />
  <path
     style="color:#000000;fill:#ffffff;stroke-linecap:round;stroke-linejoin:round;-inkscape-stroke:none"
     d="m 18,2.078125 c -0.418333,-4.7e-6 -0.836294,0.096588 -1.220703,0.2871094 -0.462291,0.2290864 -0.763311,0.5583124 -1.308594,1.1035156 l -0.998047,0.9980469 a 0.75,0.75 0 0 0 -0.0059,0.00586 L 5.8398437,13.099609 c -0.5092938,0.509284 -0.7972929,0.79271 -1.0507812,1.15625 -0.2128586,0.305421 -0.3894699,0.636011 -0.5253906,0.982422 -0.161788,0.412487 -0.2376571,0.809329 -0.3789063,1.515625 l -0.6210937,3.09961 a 0.750075,0.750075 0 0 0 0.8828125,0.882812 L 7.2460937,20.115234 C 7.9524185,19.974021 8.3494134,19.897975 8.7617188,19.736328 9.1086361,19.600187 9.4402289,19.424254 9.7460938,19.210937 10.109383,18.9575 10.391082,18.669475 10.900391,18.160156 l 8.626953,-8.6269529 0.0039,-0.00195 a 0.75,0.75 0 0 0 0.002,-0.00391 L 20.53125,8.5292969 c 0.545196,-0.5452162 0.87446,-0.8462688 1.103516,-1.3085938 0.381008,-0.768831 0.381003,-1.6725705 0,-2.4414062 C 21.405713,4.3169779 21.076449,4.0139695 20.53125,3.46875 19.986051,2.9235105 19.683006,2.5943268 19.220703,2.3652344 18.836275,2.1747309 18.418333,2.0781297 18,2.078125 Z m -0.554688,1.6308594 c 0.350181,-0.1735568 0.759033,-0.1736125 1.109375,0 0.125897,0.062387 0.370817,0.2770261 0.916016,0.8222656 0.5452,0.5452195 0.757966,0.788222 0.820313,0.9140625 0.173596,0.3503031 0.173591,0.7590871 0,1.109375 -0.06234,0.1258344 -0.27511,0.3688398 -0.820313,0.9140625 L 18.742187,8.1992188 C 17.157372,8.0699348 15.93313,6.8442796 15.802734,5.2597656 L 16.53125,4.53125 c 0.545316,-0.5452357 0.788154,-0.7598723 0.914062,-0.8222656 z m -2.888671,2.796875 c 0.475196,1.3919462 1.547268,2.4628517 2.939453,2.9375 L 9.8398438,17.099609 c -0.5092705,0.509281 -0.736155,0.729497 -0.953125,0.88086 -0.2091747,0.145883 -0.4342329,0.26807 -0.671875,0.361328 v -0.002 c -0.2462741,0.09655 -0.5555249,0.1635 -1.2617188,0.304687 l -1.9960938,0.398438 0.3984375,-1.996094 c 0.1412506,-0.706303 0.2081558,-1.015606 0.3046875,-1.261719 0.093169,-0.237452 0.2134768,-0.462694 0.359375,-0.671875 0.1512113,-0.216859 0.3715343,-0.44381 0.8808594,-0.953125 z"
     id="path1" />
</svg>
