<?xml version="1.0" encoding="UTF-8" standalone="no"?>
<svg
   width="24"
   height="24"
   viewBox="0 0 24 24"
   fill="none"
   version="1.1"
   id="svg1"
   sodipodi:docname="email-duotone.svg"
   inkscape:version="1.3 (0e150ed6c4, 2023-07-21)"
   xmlns:inkscape="http://www.inkscape.org/namespaces/inkscape"
   xmlns:sodipodi="http://sodipodi.sourceforge.net/DTD/sodipodi-0.dtd"
   xmlns="http://www.w3.org/2000/svg"
   xmlns:svg="http://www.w3.org/2000/svg">
  <defs
     id="defs1" />
  <sodipodi:namedview
     id="namedview1"
     pagecolor="#505050"
     bordercolor="#eeeeee"
     borderopacity="1"
     inkscape:showpageshadow="0"
     inkscape:pageopacity="0"
     inkscape:pagecheckerboard="0"
     inkscape:deskcolor="#505050"
     showgrid="false"
     inkscape:zoom="47.375"
     inkscape:cx="11.989446"
     inkscape:cy="12"
     inkscape:window-width="2560"
     inkscape:window-height="1351"
     inkscape:window-x="-9"
     inkscape:window-y="-9"
     inkscape:window-maximized="1"
     inkscape:current-layer="svg1" />
  <path
     style="color:#000000;fill:#ffffff;stroke-linecap:round;-inkscape-stroke:none"
     d="M 10,2.25 C 7.1997428,2.25 5.6941384,2.2117823 4.3886719,2.8769531 3.3068213,3.4281759 2.4281759,4.3068213 1.8769531,5.3886719 1.2117823,6.6941384 1.25,8.1997428 1.25,11 v 2 c 0,2.800297 -0.038204,4.305839 0.6269531,5.611328 0.551224,1.081842 1.4298427,1.960552 2.5117188,2.511719 C 5.6941433,21.788257 7.1997428,21.75 10,21.75 h 4 c 2.800297,0 4.305834,0.03824 5.611328,-0.626953 1.081867,-0.551168 1.960551,-1.429852 2.511719,-2.511719 C 22.788244,17.305834 22.75,15.800297 22.75,13 v -2 c 0,-2.8002572 0.03826,-4.3058567 -0.626953,-5.6113281 C 21.57188,4.3067958 20.69317,3.4281771 19.611328,2.8769531 18.305839,2.2117956 16.800297,2.25 14,2.25 Z m 0,1.5 h 4 c 2.800297,0 4.095979,0.038109 4.929687,0.4628906 0.799757,0.407495 1.44999,1.0576799 1.857422,1.8574219 C 21.211898,6.9039589 21.25,8.1997428 21.25,11 v 2 c 0,2.800297 -0.03809,4.095984 -0.462891,4.929687 -0.407431,0.799732 -1.05769,1.449991 -1.857422,1.857422 C 18.095984,20.211912 16.800297,20.25 14,20.25 h -4 c -2.8002572,0 -4.0960411,-0.0381 -4.9296875,-0.462891 C 4.2705705,19.379677 3.6203856,18.729444 3.2128906,17.929687 2.7881092,17.095979 2.75,15.800297 2.75,13 V 11 C 2.75,8.1997428 2.7881225,6.9039638 3.2128906,6.0703125 3.6203869,5.270545 4.270545,4.6203869 5.0703125,4.2128906 5.9039638,3.7881225 7.1997428,3.75 10,3.75 Z M 6.4160156,7.375 A 0.75,0.75 0 0 0 5.375,7.5839844 0.75,0.75 0 0 0 5.5839844,8.625 l 1,0.6660156 0.5625,0.375 c 1.6037796,1.0691994 2.4652793,1.6647794 3.5136716,1.9160154 0.880819,0.211006 1.798869,0.211006 2.679688,0 1.048373,-0.251237 1.909873,-0.846816 3.513672,-1.9160154 l 0.5625,-0.375 1,-0.6660156 A 0.75,0.75 0 0 0 18.625,7.5839844 0.75,0.75 0 0 0 17.583984,7.375 l -1,0.6679688 -0.5625,0.375 c -1.603798,1.0691989 -2.346225,1.5409156 -3.03125,1.7050782 -0.651179,0.155994 -1.329289,0.155994 -1.980468,0 C 10.32472,9.9588831 9.5822928,9.4871669 7.9785156,8.4179688 l -0.5625,-0.375 z"
     id="path1" />
</svg>
