<?xml version="1.0" encoding="UTF-8" standalone="no"?>
<svg
   width="24"
   height="24"
   viewBox="0 0 24 24"
   fill="none"
   version="1.1"
   id="svg1"
   sodipodi:docname="exit.svg"
   inkscape:version="1.3 (0e150ed6c4, 2023-07-21)"
   xmlns:inkscape="http://www.inkscape.org/namespaces/inkscape"
   xmlns:sodipodi="http://sodipodi.sourceforge.net/DTD/sodipodi-0.dtd"
   xmlns="http://www.w3.org/2000/svg"
   xmlns:svg="http://www.w3.org/2000/svg">
  <defs
     id="defs1" />
  <sodipodi:namedview
     id="namedview1"
     pagecolor="#505050"
     bordercolor="#eeeeee"
     borderopacity="1"
     inkscape:showpageshadow="0"
     inkscape:pageopacity="0"
     inkscape:pagecheckerboard="0"
     inkscape:deskcolor="#505050"
     showgrid="false"
     inkscape:zoom="47.375"
     inkscape:cx="11.989446"
     inkscape:cy="12"
     inkscape:window-width="2560"
     inkscape:window-height="1351"
     inkscape:window-x="-9"
     inkscape:window-y="-9"
     inkscape:window-maximized="1"
     inkscape:current-layer="svg1" />
  <rect
     opacity="0.12"
     x="2"
     y="2"
     width="12"
     height="20"
     rx="4"
     fill="#2649FF"
     id="rect1" />
  <path
     style="color:#000000;fill:#2649ff;stroke-linecap:round;stroke-linejoin:round;-inkscape-stroke:none"
     d="M 8,1.25 C 6.1362419,1.25 5.1237673,1.2210866 4.1816406,1.6113281 3.0180323,2.0933166 2.0933189,3.0199797 1.6113281,4.1835937 1.2210905,5.1257238 1.25,6.1362319 1.25,8 v 8 c 0,1.863798 -0.028885,2.876245 0.3613281,3.818359 0.4819925,1.163606 1.4066917,2.088305 2.5703125,2.570313 C 5.1237649,22.778943 6.1362619,22.75 8,22.75 h 0.5 c 1.3959786,0 2.147552,0.01694 2.878906,-0.205078 1.517025,-0.460258 2.705758,-1.648991 3.166016,-3.166016 C 14.766942,18.647555 14.7501,17.896017 14.75,16.5 V 16 A 0.75,0.75 0 0 0 14,15.25 0.75,0.75 0 0 0 13.25,16 v 0.5 c 10e-5,1.395981 -0.01784,2.038912 -0.140625,2.443359 -0.315341,1.039373 -1.126643,1.852628 -2.166016,2.167969 C 10.538914,21.234107 9.8959786,21.25 8.5,21.25 H 8 C 6.1362619,21.25 5.2838736,21.222634 4.7558594,21.003906 3.9592222,20.673915 3.3280136,20.040733 2.9980469,19.244141 2.7793204,18.716056 2.75,17.863798 2.75,16 V 8 C 2.75,6.1362319 2.7793251,5.2839078 2.9980469,4.7558594 3.3280152,3.9592554 3.9592497,3.3280176 4.7558594,2.9980469 5.2838912,2.779329 6.1362419,2.75 8,2.75 h 0.5 c 1.3951086,0 2.038904,0.017992 2.443359,0.140625 1.039772,0.315298 1.850665,1.1261942 2.166016,2.1660156 C 13.231971,5.4609851 13.25,6.1048914 13.25,7.5 V 8 A 0.75,0.75 0 0 0 14,8.75 0.75,0.75 0 0 0 14.75,8 V 7.5 c 0,-1.3951086 0.01653,-2.1460587 -0.205078,-2.8769531 a 0.750075,0.750075 0 0 0 0,-0.00195 C 14.084674,3.1034978 12.896532,1.9152794 11.378906,1.4550781 10.647962,1.2334517 9.8951086,1.25 8.5,1.25 Z m 10,6 a 0.75,0.75 0 0 0 -0.53125,0.21875 0.75,0.75 0 0 0 0,1.0625 L 20.1875,11.25 H 9 A 0.75,0.75 0 0 0 8.25,12 0.75,0.75 0 0 0 9,12.75 h 11.1875 l -2.71875,2.71875 a 0.75,0.75 0 0 0 0,1.0625 0.75,0.75 0 0 0 1.0625,0 l 4,-4 a 0.75,0.75 0 0 0 0.193359,-0.337891 0.75,0.75 0 0 0 0,-0.130859 A 0.75,0.75 0 0 0 22.75,12 0.75,0.75 0 0 0 22.724609,11.871094 0.75,0.75 0 0 0 22.705078,11.773438 0.75,0.75 0 0 0 22.53125,11.46875 l -4,-4 A 0.75,0.75 0 0 0 18,7.25 Z"
     id="path1" />
</svg>
