<?xml version="1.0" encoding="UTF-8" standalone="no"?>
<svg
   width="24"
   height="24"
   viewBox="0 0 24 24"
   fill="none"
   version="1.1"
   id="svg1"
   sodipodi:docname="eye-crossed.svg"
   inkscape:version="1.3 (0e150ed6c4, 2023-07-21)"
   xmlns:inkscape="http://www.inkscape.org/namespaces/inkscape"
   xmlns:sodipodi="http://sodipodi.sourceforge.net/DTD/sodipodi-0.dtd"
   xmlns="http://www.w3.org/2000/svg"
   xmlns:svg="http://www.w3.org/2000/svg">
  <defs
     id="defs1" />
  <sodipodi:namedview
     id="namedview1"
     pagecolor="#505050"
     bordercolor="#eeeeee"
     borderopacity="1"
     inkscape:showpageshadow="0"
     inkscape:pageopacity="0"
     inkscape:pagecheckerboard="0"
     inkscape:deskcolor="#505050"
     showgrid="false"
     inkscape:zoom="47.375"
     inkscape:cx="11.989446"
     inkscape:cy="12"
     inkscape:window-width="2560"
     inkscape:window-height="1351"
     inkscape:window-x="-9"
     inkscape:window-y="-9"
     inkscape:window-maximized="1"
     inkscape:current-layer="svg1" />
  <path
     style="color:#000000;fill:#ffffff;stroke-linecap:round;-inkscape-stroke:none"
     d="m 3,2.25 a 0.75,0.75 0 0 0 -0.53125,0.21875 0.75,0.75 0 0 0 0,1.0625 L 4.7324219,5.7929687 C 2.399737,7.7205662 1.25,10.22235 1.25,12 c 0,1.549998 0.8335876,3.639311 2.5839844,5.457031 C 5.5843812,19.274751 8.3035751,20.75 12,20.75 c 2.456148,0 4.419616,-0.70273 6.013672,-1.673828 l 2.455078,2.455078 a 0.75,0.75 0 0 0 1.0625,0 0.75,0.75 0 0 0 0,-1.0625 L 18.705078,17.644531 14.652344,13.591797 10.408203,9.3476563 6.3554687,5.2949219 3.53125,2.46875 A 0.75,0.75 0 0 0 3,2.25 Z m 9,1 c -1.158562,0 -2.2234447,0.1423565 -3.1914062,0.3964844 -0.1819234,0.047761 -0.3600365,0.100879 -0.5351563,0.15625 A 0.75,0.75 0 0 0 7.7851562,4.7421875 0.75,0.75 0 0 0 8.7265625,5.2324219 C 8.8780823,5.184513 9.0314568,5.1391354 9.1894531,5.0976562 10.03021,4.8769246 10.964564,4.75 12,4.75 c 3.303568,0 5.584384,1.2747544 7.083984,2.8320312 C 20.583584,9.1393081 21.25,11.050001 21.25,12 c 0,0.689428 -0.340394,1.903783 -1.111328,3.091797 -0.09973,0.153734 -0.206546,0.307988 -0.320313,0.460937 a 0.75,0.75 0 0 0 0.154297,1.048828 0.75,0.75 0 0 0 1.048828,-0.154296 c 0.133033,-0.178851 0.25793,-0.358598 0.375,-0.539063 C 22.300948,14.514419 22.75,13.124771 22.75,12 22.75,10.450002 21.916412,8.3606885 20.166016,6.5429687 18.415619,4.725249 15.696425,3.25 12,3.25 Z M 5.7949219,6.8554687 8.921875,9.9824219 C 8.5330159,10.574352 8.25,11.242848 8.25,12 c 0,2.06223 1.6878725,3.75 3.75,3.75 0.757152,0 1.425644,-0.283033 2.017578,-0.671875 l 2.890625,2.890625 C 15.593244,18.702147 14.031911,19.25 12,19.25 8.6964319,19.25 6.4156156,17.975246 4.9160156,16.417969 3.4164157,14.860692 2.75,12.949999 2.75,12 2.75,10.890049 3.7249105,8.5422347 5.7949219,6.8554687 Z m 4.3027341,4.3027343 2.744141,2.744141 C 12.561174,14.028795 12.330909,14.25 12,14.25 10.748531,14.25 9.75,13.251567 9.75,12 c 0,-0.330909 0.2212053,-0.561183 0.347656,-0.841797 z"
     id="path1" />
</svg>
