<?xml version="1.0" encoding="UTF-8" standalone="no"?>
<svg
   width="24"
   height="24"
   viewBox="0 0 24 24"
   fill="none"
   version="1.1"
   id="svg2"
   sodipodi:docname="eye.svg"
   inkscape:version="1.3 (0e150ed6c4, 2023-07-21)"
   xmlns:inkscape="http://www.inkscape.org/namespaces/inkscape"
   xmlns:sodipodi="http://sodipodi.sourceforge.net/DTD/sodipodi-0.dtd"
   xmlns="http://www.w3.org/2000/svg"
   xmlns:svg="http://www.w3.org/2000/svg">
  <defs
     id="defs2" />
  <sodipodi:namedview
     id="namedview2"
     pagecolor="#505050"
     bordercolor="#eeeeee"
     borderopacity="1"
     inkscape:showpageshadow="0"
     inkscape:pageopacity="0"
     inkscape:pagecheckerboard="0"
     inkscape:deskcolor="#505050"
     showgrid="false"
     inkscape:zoom="47.375"
     inkscape:cx="11.989446"
     inkscape:cy="12"
     inkscape:window-width="2560"
     inkscape:window-height="1351"
     inkscape:window-x="-9"
     inkscape:window-y="-9"
     inkscape:window-maximized="1"
     inkscape:current-layer="svg2" />
  <path
     style="color:#000000;fill:#ffffff;stroke-linecap:round;-inkscape-stroke:none"
     d="M 12,3.25 C 8.3035751,3.25 5.5843812,4.725249 3.8339844,6.5429687 2.0835876,8.3606885 1.25,10.450002 1.25,12 c 0,1.549998 0.8335876,3.639311 2.5839844,5.457031 C 5.5843812,19.274751 8.3035751,20.75 12,20.75 c 3.696425,0 6.415619,-1.475249 8.166016,-3.292969 C 21.916412,15.639311 22.75,13.549998 22.75,12 22.75,10.450002 21.916412,8.3606885 20.166016,6.5429687 18.415619,4.725249 15.696425,3.25 12,3.25 Z m 0,1.5 c 3.303568,0 5.584384,1.2747544 7.083984,2.8320312 C 20.583584,9.1393081 21.25,11.050001 21.25,12 c 0,0.949999 -0.666416,2.860692 -2.166016,4.417969 C 17.584384,17.975246 15.303568,19.25 12,19.25 8.6964319,19.25 6.4156156,17.975246 4.9160156,16.417969 3.4164157,14.860692 2.75,12.949999 2.75,12 2.75,11.050001 3.4164157,9.1393081 4.9160156,7.5820312 6.4156156,6.0247544 8.6964319,4.75 12,4.75 Z"
     id="path1" />
  <path
     style="color:#000000;fill:#ffffff;stroke-linecap:round;-inkscape-stroke:none"
     d="m 12,8.25 c -2.062203,0 -3.75,1.687797 -3.75,3.75 0,2.062203 1.687797,3.75 3.75,3.75 2.062203,0 3.75,-1.687797 3.75,-3.75 0,-2.062203 -1.687797,-3.75 -3.75,-3.75 z m 0,1.5 c 1.251594,0 2.25,0.998406 2.25,2.25 0,1.251594 -0.998406,2.25 -2.25,2.25 -1.251594,0 -2.25,-0.998406 -2.25,-2.25 0,-1.251594 0.998406,-2.25 2.25,-2.25 z"
     id="path2" />
</svg>
