<?xml version="1.0" encoding="UTF-8" standalone="no"?>
<svg
   width="24"
   height="24"
   viewBox="0 0 24 24"
   fill="none"
   version="1.1"
   id="svg2"
   sodipodi:docname="geo.svg"
   inkscape:version="1.3 (0e150ed6c4, 2023-07-21)"
   xmlns:inkscape="http://www.inkscape.org/namespaces/inkscape"
   xmlns:sodipodi="http://sodipodi.sourceforge.net/DTD/sodipodi-0.dtd"
   xmlns="http://www.w3.org/2000/svg"
   xmlns:svg="http://www.w3.org/2000/svg">
  <defs
     id="defs2" />
  <sodipodi:namedview
     id="namedview2"
     pagecolor="#505050"
     bordercolor="#eeeeee"
     borderopacity="1"
     inkscape:showpageshadow="0"
     inkscape:pageopacity="0"
     inkscape:pagecheckerboard="0"
     inkscape:deskcolor="#505050"
     showgrid="false"
     inkscape:zoom="47.375"
     inkscape:cx="11.989446"
     inkscape:cy="12"
     inkscape:window-width="2560"
     inkscape:window-height="1351"
     inkscape:window-x="-9"
     inkscape:window-y="-9"
     inkscape:window-maximized="1"
     inkscape:current-layer="svg2" />
  <path
     style="color:#000000;fill:#ffffff;-inkscape-stroke:none"
     d="m 12,1.25 c -5.3499947,0 -9.75,3.8500054 -9.75,9.25 0,4.148775 1.8677554,7.234398 3.984375,9.238281 1.0583098,1.001942 2.1771151,1.742328 3.1816406,2.240235 C 10.420541,22.476422 11.272001,22.75 12,22.75 c 0.727999,0 1.579459,-0.273578 2.583984,-0.771484 1.004526,-0.497907 2.123331,-1.238293 3.181641,-2.240235 C 19.882245,17.734398 21.75,14.648775 21.75,10.5 21.75,5.1000054 17.349995,1.25 12,1.25 Z m 0,1.5 c 4.649995,0 8.25,3.1500046 8.25,7.75 0,3.703017 -1.632249,6.367328 -3.515625,8.150391 -0.941688,0.891531 -1.947887,1.552913 -2.818359,1.984375 C 13.045543,21.066227 12.272,21.25 12,21.25 11.728,21.25 10.954457,21.066227 10.083984,20.634766 9.2135117,20.203304 8.2073132,19.541922 7.265625,18.650391 5.3822486,16.867328 3.75,14.203017 3.75,10.5 3.75,5.9000046 7.3500047,2.75 12,2.75 Z"
     id="path1" />
  <path
     style="color:#000000;fill:#ffffff;-inkscape-stroke:none"
     d="m 12,7.25 c -2.0622181,0 -3.75,1.6878347 -3.75,3.75 0,2.062203 1.687797,3.75 3.75,3.75 2.062203,0 3.75,-1.687797 3.75,-3.75 0,-2.0621653 -1.687782,-3.75 -3.75,-3.75 z m 0,1.5 c 1.251579,0 2.25,0.9984686 2.25,2.25 0,1.251594 -0.998406,2.25 -2.25,2.25 -1.251594,0 -2.25,-0.998406 -2.25,-2.25 0,-1.2515314 0.998421,-2.25 2.25,-2.25 z"
     id="path2" />
</svg>
