<?xml version="1.0" encoding="UTF-8" standalone="no"?>
<svg
   width="24"
   height="24"
   viewBox="0 0 24 24"
   fill="none"
   version="1.1"
   id="svg1"
   sodipodi:docname="globe.svg"
   inkscape:version="1.3 (0e150ed6c4, 2023-07-21)"
   xmlns:inkscape="http://www.inkscape.org/namespaces/inkscape"
   xmlns:sodipodi="http://sodipodi.sourceforge.net/DTD/sodipodi-0.dtd"
   xmlns="http://www.w3.org/2000/svg"
   xmlns:svg="http://www.w3.org/2000/svg">
  <defs
     id="defs1" />
  <sodipodi:namedview
     id="namedview1"
     pagecolor="#505050"
     bordercolor="#eeeeee"
     borderopacity="1"
     inkscape:showpageshadow="0"
     inkscape:pageopacity="0"
     inkscape:pagecheckerboard="0"
     inkscape:deskcolor="#505050"
     showgrid="false"
     inkscape:zoom="47.375"
     inkscape:cx="11.989446"
     inkscape:cy="12"
     inkscape:window-width="2560"
     inkscape:window-height="1351"
     inkscape:window-x="-9"
     inkscape:window-y="-9"
     inkscape:window-maximized="1"
     inkscape:current-layer="svg1" />
  <path
     style="color:#000000;fill:#ffffff;stroke-linecap:round;stroke-linejoin:round;-inkscape-stroke:none"
     d="M 12,1.25 C 6.0718263,1.25 1.25,6.0718263 1.25,12 c 0,5.928127 4.8218217,10.75 10.75,10.75 5.928132,0 10.75,-4.821868 10.75,-10.75 a 0.75,0.75 0 0 0 -0.05859,-0.291016 C 22.530503,6.0253988 17.974555,1.4694958 12.291016,1.3085937 A 0.75,0.75 0 0 0 12,1.25 Z m 0,1.5 c 0.298939,0 0.626891,0.1438583 1.011719,0.5507813 0.384828,0.4069229 0.78359,1.0624977 1.121094,1.9062499 0.252706,0.6317631 0.430832,1.4505356 0.607421,2.2636719 C 13.847524,7.3705973 12.969861,7.25 12,7.25 11.030131,7.25 10.152479,7.3705973 9.2597656,7.4707031 9.4363527,6.6575667 9.6144824,5.8387939 9.8671875,5.2070312 10.204688,4.3632796 10.603452,3.7077033 10.988281,3.3007813 11.37311,2.8938592 11.701046,2.75 12,2.75 Z M 9.2851563,3.296875 C 9.009302,3.7362056 8.694464,4.1007541 8.4746094,4.6503906 8.1258292,5.522341 7.8662939,6.5605892 7.6601562,7.6601562 6.5605892,7.8662939 5.522341,8.1258292 4.6503906,8.4746094 4.1007541,8.694464 3.7362056,9.009302 3.296875,9.2851563 4.197557,6.3961779 6.3961779,4.197557 9.2851563,3.296875 Z m 5.4296877,0 c 2.888966,0.9006828 5.08759,3.0993039 5.988281,5.9882813 C 20.263792,9.0093023 19.899247,8.6944638 19.349609,8.4746094 18.477657,8.1258295 17.439409,7.8662939 16.339844,7.6601562 16.133703,6.560589 15.874173,5.5223405 15.525391,4.6503906 15.305535,4.1007544 14.990698,3.736205 14.714844,3.296875 Z M 12,8.75 c 1.068649,0 2.049009,0.1166867 3.005859,0.2441406 C 15.133315,9.9509936 15.25,10.931341 15.25,12 c 0,1.068649 -0.116685,2.04901 -0.244141,3.005859 C 14.04901,15.133315 13.068649,15.25 12,15.25 10.931341,15.25 9.9509936,15.133315 8.9941406,15.005859 8.8666867,14.049009 8.75,13.068649 8.75,12 8.75,10.93134 8.8666867,9.950994 8.9941406,8.9941406 9.950994,8.8666867 10.93134,8.75 12,8.75 Z M 7.4707031,9.2597656 C 7.3705973,10.152479 7.25,11.030131 7.25,12 c 0,0.969861 0.1205973,1.847524 0.2207031,2.740234 C 6.6575668,14.563645 5.8387943,14.385519 5.2070312,14.132813 4.363279,13.795309 3.7077042,13.396547 3.3007813,13.011719 2.8938583,12.626891 2.75,12.298939 2.75,12 2.75,11.701046 2.8938592,11.37311 3.3007813,10.988281 3.7077033,10.603452 4.3632796,10.204688 5.2070312,9.8671875 5.8387939,9.6144824 6.6575667,9.4363527 7.4707031,9.2597656 Z m 9.0585939,0 c 0.813136,0.1765871 1.631906,0.3547166 2.263672,0.6074219 0.843755,0.3375005 1.499324,0.7362645 1.90625,1.1210935 C 21.106145,11.373111 21.25,11.701049 21.25,12 c 0,0.298936 -0.143854,0.62689 -0.550781,1.011719 -0.406927,0.384829 -1.062494,0.78359 -1.90625,1.121094 -0.631766,0.252707 -1.450536,0.430832 -2.263672,0.607421 C 16.629405,13.847524 16.75,12.969862 16.75,12 c 0,-0.96987 -0.120595,-1.847521 -0.220703,-2.7402344 z M 3.296875,14.714844 c 0.43933,0.275854 0.8038794,0.590691 1.3535156,0.810547 0.8719499,0.348782 1.9101984,0.608312 3.0097656,0.814453 0.2061377,1.099565 0.4656733,2.137813 0.8144532,3.009765 0.2198544,0.549638 0.5346929,0.914183 0.8105469,1.353516 C 6.3961789,19.802434 4.1975578,17.60381 3.296875,14.714844 Z m 17.40625,0 c -0.900692,2.888965 -3.099316,5.087589 -5.988281,5.988281 0.275854,-0.439332 0.590691,-0.803878 0.810547,-1.353516 0.348782,-0.871952 0.608312,-1.9102 0.814453,-3.009765 1.099565,-0.206141 2.137813,-0.465671 3.009765,-0.814453 0.549638,-0.219856 0.914184,-0.534693 1.353516,-0.810547 z M 9.2597656,16.529297 C 10.152479,16.629405 11.03013,16.75 12,16.75 c 0.969862,0 1.847524,-0.120595 2.740234,-0.220703 -0.176589,0.813136 -0.354714,1.631906 -0.607421,2.263672 -0.337504,0.843756 -0.736265,1.499323 -1.121094,1.90625 C 12.62689,21.106146 12.298936,21.25 12,21.25 11.701049,21.25 11.373111,21.106145 10.988281,20.699219 10.603452,20.292293 10.204688,19.636724 9.8671875,18.792969 9.6144822,18.161203 9.4363527,17.342433 9.2597656,16.529297 Z"
     id="path1" />
</svg>
