<?xml version="1.0" encoding="UTF-8" standalone="no"?>
<svg
   width="24"
   height="24"
   viewBox="0 0 24 24"
   fill="none"
   version="1.1"
   id="svg13"
   sodipodi:docname="gos-uslugi.svg"
   inkscape:version="1.3 (0e150ed6c4, 2023-07-21)"
   xmlns:inkscape="http://www.inkscape.org/namespaces/inkscape"
   xmlns:sodipodi="http://sodipodi.sourceforge.net/DTD/sodipodi-0.dtd"
   xmlns="http://www.w3.org/2000/svg"
   xmlns:svg="http://www.w3.org/2000/svg">
  <sodipodi:namedview
     id="namedview13"
     pagecolor="#ffffff"
     bordercolor="#000000"
     borderopacity="0.25"
     inkscape:showpageshadow="2"
     inkscape:pageopacity="0.0"
     inkscape:pagecheckerboard="0"
     inkscape:deskcolor="#d1d1d1"
     inkscape:zoom="47.375"
     inkscape:cx="11.989446"
     inkscape:cy="12"
     inkscape:window-width="2560"
     inkscape:window-height="1351"
     inkscape:window-x="-9"
     inkscape:window-y="-9"
     inkscape:window-maximized="1"
     inkscape:current-layer="svg13" />
  <g
     clip-path="url(#clip0_157_3874)"
     id="g10">
    <path
       d="M22.7937 7.96125C22.6993 6.72442 21.7552 5.13874 20.8112 4.3776C19.7495 3.59867 18.6465 2.87875 17.507 2.22107C16.376 1.54553 15.2101 0.931522 14.014 0.381675C13.375 0.119012 12.6899 -0.0104481 12 0.001112C11.3098 -0.0135024 10.6241 0.116073 9.986 0.381675C8.79009 0.931913 7.6241 1.54591 6.49299 2.22107C4.66783 3.33105 3.18879 4.3776 3.18879 4.3776C2.69868 4.79096 2.28358 5.27925 1.95589 5.82034C1.91831 5.8824 1.96365 5.96059 2.0362 5.96059H3.57002C3.60705 5.96059 3.64213 5.94424 3.66642 5.9163C3.84331 5.71279 4.03693 5.52244 4.2461 5.3475C4.2461 5.3475 5.54765 4.43415 7.15381 3.46542C8.14921 2.87619 9.17525 2.34034 10.2277 1.86014C10.7891 1.62833 11.3926 1.51525 12 1.528C12.6071 1.51792 13.21 1.6309 13.7723 1.86014C14.8248 2.34 15.8509 2.87586 16.8461 3.46542C17.8489 4.03939 18.8196 4.6677 19.7538 5.3475C20.5846 6.01174 21.4153 7.3956 21.4984 8.47504C21.4984 8.47504 21.6923 10.0803 21.72 11.9818C21.7182 13.1561 21.6536 14.3294 21.5261 15.4968C21.3329 16.7191 20.7033 17.8301 19.7538 18.6243C19.7538 18.6243 18.4523 19.5654 16.8461 20.5341C15.8507 21.1233 14.8247 21.6592 13.7723 22.1394C13.2108 22.3712 12.6073 22.4842 12 22.4715C11.3934 22.4842 10.7905 22.3741 10.2277 22.1477C9.1751 21.6678 8.14903 21.132 7.15381 20.5424C5.54765 19.6014 4.2461 18.6326 4.2461 18.6326C4.07709 18.4975 3.90804 18.3325 3.74508 18.1464C3.72079 18.1187 3.68583 18.1025 3.64896 18.1025H2.10947C2.036 18.1025 1.99077 18.1825 2.02995 18.2447C2.37209 18.7875 2.78044 19.271 3.18879 19.6002C3.18879 19.6002 4.66783 20.7102 6.49299 21.7884C7.62391 22.464 8.7899 23.078 9.986 23.6278C10.6256 23.8872 11.3107 24.0135 12 23.9989C12.6902 24.0135 13.3759 23.8839 14.014 23.6183C15.2099 23.0681 16.3759 22.4541 17.507 21.7789C19.3321 20.6689 20.8112 19.5907 20.8112 19.5907C21.8901 18.6806 22.6056 17.4076 22.8251 16.007C22.97 14.6694 23.0435 13.3249 23.0454 11.9794C23.014 9.80062 22.7937 7.96125 22.7937 7.96125Z"
       fill="url(#paint0_linear_157_3874)"
       id="path1" />
    <path
       d="M8.28786 15.2327H7.54352C7.51862 15.2327 7.50051 15.2085 7.5073 15.1843C7.63176 14.7608 7.76147 14.2813 7.85121 13.7498C7.9432 13.2002 7.9915 12.6936 8.01186 12.2413C8.01261 12.2209 8.02918 12.2051 8.04955 12.2051H10.2617C10.2825 12.2051 10.2994 12.222 10.2994 12.2428V15.1949C10.2994 15.2158 10.2825 15.2327 10.2617 15.2327H9.53683C9.51598 15.2327 9.49911 15.2158 9.49911 15.1949V12.9148H8.7715C8.74476 13.2513 8.69965 13.6128 8.62573 13.9944C8.53975 14.4414 8.43793 14.8468 8.3233 15.207C8.3188 15.2221 8.30368 15.2327 8.28786 15.2327Z"
       fill="#EE2F53"
       id="path2" />
    <path
       d="M1.29297 7.8278C1.29297 7.80695 1.30984 7.79004 1.33064 7.79004H3.46332C3.48995 7.79004 3.50798 7.81756 3.49763 7.84239L3.23352 8.4767C3.22654 8.49346 3.21059 8.50108 3.19545 8.49958C3.19421 8.49969 3.19295 8.49976 3.19168 8.49976H2.09163V10.7799C2.09163 10.8008 2.07476 10.8176 2.05396 10.8176H1.33064C1.30984 10.8176 1.29297 10.8008 1.29297 10.7799V7.8278Z"
       fill="#0066B3"
       id="path3" />
    <path
       d="M14.2866 12.2428C14.2866 12.222 14.3035 12.2051 14.3243 12.2051H16.4614C16.4881 12.2051 16.5062 12.2326 16.4958 12.2574L16.2312 12.8917C16.2242 12.9085 16.2082 12.9161 16.193 12.9146C16.1918 12.9147 16.1905 12.9148 16.1893 12.9148H15.0869V15.1949C15.0869 15.2158 15.07 15.2327 15.0492 15.2327H14.3243C14.3035 15.2327 14.2866 15.2158 14.2866 15.1949V12.2428Z"
       fill="#EE2F53"
       id="path4" />
    <path
       d="M1.3307 12.2051C1.30451 12.2051 1.2863 12.2308 1.2953 12.2552L2.39655 15.2331C2.24115 15.5599 2.06849 15.9038 1.87104 16.2871C1.85811 16.3122 1.87612 16.3425 1.9044 16.3425H2.68782C2.70205 16.3425 2.71517 16.3344 2.72159 16.3217C3.30129 15.1421 3.72788 14.0964 4.31112 12.255C4.31907 12.2306 4.30107 12.2051 4.27538 12.2051H3.54774C3.53085 12.2051 3.51593 12.2166 3.51131 12.2328C3.28677 13.02 3.07974 13.6362 2.83976 14.23L2.09997 12.2295C2.09454 12.2148 2.0804 12.2051 2.06458 12.2051H1.3307Z"
       fill="#EE2F53"
       id="path5" />
    <path
       d="M10.8234 12.2051C10.7972 12.2051 10.779 12.2308 10.788 12.2552L11.8892 15.2331C11.7338 15.5599 11.5611 15.9038 11.3637 16.2871C11.3508 16.3122 11.3688 16.3425 11.3971 16.3425H12.1805C12.1947 16.3425 12.2078 16.3344 12.2142 16.3217C12.794 15.1421 13.2206 14.0964 13.8038 12.255C13.8117 12.2306 13.7937 12.2051 13.7681 12.2051H13.0404C13.0235 12.2051 13.0086 12.2166 13.004 12.2328C12.7794 13.02 12.5724 13.6362 12.3324 14.23L11.5926 12.2295C11.5872 12.2148 11.5731 12.2051 11.5572 12.2051H10.8234Z"
       fill="#EE2F53"
       id="path6" />
    <path
       d="M6.90724 14.5178C6.90349 14.5081 6.89599 14.4999 6.88624 14.4954C6.87653 14.4909 6.86528 14.4909 6.85553 14.4939C6.68172 14.5581 6.35584 14.6103 6.12882 14.6103C5.63209 14.6103 5.39535 14.4768 5.39535 13.7181C5.39535 13.1115 5.46803 12.8258 6.12882 12.8258C6.31613 12.8258 6.48994 12.8527 6.71093 12.9168C6.72893 12.9221 6.74839 12.9139 6.75664 12.8975C6.83907 12.743 6.9387 12.5543 7.05109 12.323C7.05634 12.3126 7.05634 12.3006 7.05184 12.2902C7.04734 12.2798 7.03834 12.2715 7.02709 12.2678C6.73643 12.1753 6.38955 12.1216 6.07714 12.1216C5.03648 12.1216 4.57275 12.6102 4.57275 13.7069C4.57275 14.8192 5.03648 15.3153 6.07714 15.3153C6.33784 15.3153 6.85178 15.2608 7.09977 15.1624C7.11927 15.1542 7.12973 15.1318 7.12227 15.1124L6.90724 14.5178Z"
       fill="#EE2F53"
       id="path7" />
    <path
       d="M9.39894 10.1028C9.39519 10.0931 9.38769 10.0849 9.37798 10.0804C9.36823 10.0759 9.35698 10.0759 9.34723 10.0789C9.17342 10.1431 8.84754 10.1953 8.62052 10.1953C8.12383 10.1953 7.88705 10.0617 7.88705 9.30303C7.88705 8.69654 7.95973 8.41079 8.62052 8.41079C8.80783 8.41079 8.98164 8.43764 9.20267 8.50181C9.22063 8.50706 9.24013 8.49884 9.24834 8.48242C9.33077 8.32799 9.4304 8.13926 9.54279 7.90799C9.54804 7.89753 9.54804 7.88561 9.54354 7.87514C9.53904 7.86472 9.53004 7.85651 9.51883 7.85279C9.22813 7.76028 8.88125 7.70654 8.56884 7.70654C7.52822 7.70654 7.06445 8.19521 7.06445 9.29186C7.06445 10.4041 7.52822 10.9003 8.56884 10.9003C8.82954 10.9003 9.34352 10.8458 9.59147 10.7473C9.61097 10.7391 9.62147 10.7167 9.61397 10.6974L9.39894 10.1028Z"
       fill="#0066B3"
       id="path8" />
    <path
       d="M5.10344 7.70654C4.08606 7.70654 3.68994 8.15096 3.68994 9.29171C3.68994 10.4499 4.08606 10.9003 5.10344 10.9003C6.12895 10.9003 6.52877 10.4499 6.52877 9.29171C6.52877 8.15096 6.12895 7.70654 5.10344 7.70654ZM5.10344 10.2356C4.63994 10.2356 4.49552 10.1073 4.49552 9.30303C4.49552 8.44672 4.65325 8.37052 5.10344 8.37052C5.56251 8.37052 5.7232 8.44672 5.7232 9.30303C5.7232 10.1073 5.57582 10.2356 5.10344 10.2356Z"
       fill="#0066B3"
       id="path9" />
    <path
       d="M19.4766 12.2051H18.7522C18.731 12.2051 18.7144 12.2217 18.7144 12.2427V14.5239C18.5575 14.5676 18.4006 14.5887 18.224 14.5887C17.7848 14.5887 17.6573 14.4652 17.6407 13.9499V12.2427C17.6407 12.2217 17.6241 12.2051 17.603 12.2051H16.8785C16.8574 12.2051 16.8408 12.2217 16.8408 12.2427V12.2473C16.8408 12.2473 16.8408 13.9642 16.8416 13.9665C16.8589 14.936 17.2106 15.3157 18.0791 15.3157C18.5862 15.3157 19.1521 15.1869 19.4879 15.0588C19.5037 15.0535 19.5136 15.0385 19.5136 15.0219V12.2473V12.2427C19.5143 12.2217 19.4977 12.2051 19.4766 12.2051Z"
       fill="#EE2F53"
       id="path10" />
  </g>
  <defs
     id="defs13">
    <linearGradient
       id="paint0_linear_157_3874"
       x1="12.3065"
       y1="-0.08736"
       x2="12.3065"
       y2="23.9674"
       gradientUnits="userSpaceOnUse">
      <stop
         stop-color="#0F67B1"
         id="stop10" />
      <stop
         offset="0.4"
         stop-color="#0F67B1"
         id="stop11" />
      <stop
         offset="0.66"
         stop-color="#EE2F53"
         id="stop12" />
      <stop
         offset="1"
         stop-color="#EE2F53"
         id="stop13" />
    </linearGradient>
    <clipPath
       id="clip0_157_3874">
      <rect
         width="24"
         height="24"
         fill="white"
         id="rect13" />
    </clipPath>
  </defs>
</svg>
