<?xml version="1.0" encoding="UTF-8" standalone="no"?>
<svg
   width="24"
   height="24"
   viewBox="0 0 24 24"
   fill="none"
   version="1.1"
   id="svg4"
   sodipodi:docname="gridofapps-duotone.svg"
   inkscape:version="1.3 (0e150ed6c4, 2023-07-21)"
   xmlns:inkscape="http://www.inkscape.org/namespaces/inkscape"
   xmlns:sodipodi="http://sodipodi.sourceforge.net/DTD/sodipodi-0.dtd"
   xmlns="http://www.w3.org/2000/svg"
   xmlns:svg="http://www.w3.org/2000/svg">
  <defs
     id="defs4" />
  <sodipodi:namedview
     id="namedview4"
     pagecolor="#505050"
     bordercolor="#eeeeee"
     borderopacity="1"
     inkscape:showpageshadow="0"
     inkscape:pageopacity="0"
     inkscape:pagecheckerboard="0"
     inkscape:deskcolor="#505050"
     showgrid="false"
     inkscape:zoom="47.375"
     inkscape:cx="11.989446"
     inkscape:cy="12"
     inkscape:window-width="2560"
     inkscape:window-height="1351"
     inkscape:window-x="-9"
     inkscape:window-y="-9"
     inkscape:window-maximized="1"
     inkscape:current-layer="svg4" />
  <path
     style="color:#000000;fill:#ffffff;stroke-linecap:round;stroke-linejoin:round;-inkscape-stroke:none"
     d="M 5.1992187,1.25 C 4.0791099,1.25 3.4156833,1.2106332 2.7519531,1.5488281 2.2345774,1.8124309 1.8124309,2.2345774 1.5488281,2.7519531 1.2106332,3.4156833 1.25,4.0791099 1.25,5.1992187 v 1.6015625 c 0,1.1201089 -0.039367,1.7835355 0.2988281,2.4472657 0.2636028,0.5173757 0.6857493,0.9395221 1.203125,1.2031251 C 3.4156833,10.789367 4.0791099,10.75 5.1992187,10.75 h 1.6015625 c 1.1201089,0 1.7835355,0.03937 2.4472657,-0.298828 C 9.7654226,10.187569 10.187569,9.7654226 10.451172,9.2480469 10.789367,8.5843167 10.75,7.9208901 10.75,6.8007812 V 5.1992187 c 0,-1.1201088 0.03937,-1.7835354 -0.298828,-2.4472656 C 10.187569,2.2345774 9.7654226,1.8124309 9.2480469,1.5488281 8.5843167,1.2106332 7.9208901,1.25 6.8007812,1.25 Z m 0,1.5 h 1.6015625 c 1.1201089,0 1.5756692,0.038934 1.7675782,0.1367188 0.2352835,0.1198768 0.425045,0.3096383 0.5449219,0.5449218 C 9.2110659,3.6235496 9.25,4.0791099 9.25,5.1992187 V 6.8007812 C 9.25,7.9208901 9.2110659,8.3764504 9.1132813,8.5683594 8.9934044,8.8036429 8.8036429,8.9934044 8.5683594,9.1132813 8.3764504,9.2110659 7.9208901,9.25 6.8007812,9.25 H 5.1992187 C 4.0791099,9.25 3.6235496,9.2110659 3.4316406,9.1132813 3.1963571,8.9934044 3.0065956,8.8036429 2.8867188,8.5683594 2.7889341,8.3764504 2.75,7.9208901 2.75,6.8007812 V 5.1992187 C 2.75,4.0791099 2.7889341,3.6235496 2.8867188,3.4316406 3.0065956,3.1963571 3.1963571,3.0065956 3.4316406,2.8867188 3.6235496,2.7889341 4.0791099,2.75 5.1992187,2.75 Z"
     id="path1" />
  <path
     style="color:#000000;fill:#ffffff;stroke-linecap:round;stroke-linejoin:round;-inkscape-stroke:none"
     d="M 17.199219,1.25 C 16.07912,1.25 15.4157,1.2106091 14.751953,1.5488281 14.234634,1.8124231 13.81242,2.2344911 13.548828,2.7519531 13.210616,3.4156874 13.25,4.0791099 13.25,5.1992187 v 1.6015625 c 0,1.1201089 -0.03938,1.7835314 0.298828,2.4472657 0.263592,0.517462 0.685806,0.9395301 1.203125,1.2031251 C 15.4157,10.789391 16.07912,10.75 17.199219,10.75 h 1.601562 c 1.120099,0 1.783519,0.03939 2.447266,-0.298828 C 21.765366,10.187577 22.18758,9.7655089 22.451172,9.2480469 22.789384,8.5843126 22.75,7.9208901 22.75,6.8007812 V 5.1992187 c 0,-1.1201088 0.03938,-1.7835313 -0.298828,-2.4472656 C 22.18758,2.2344911 21.765366,1.8124231 21.248047,1.5488281 20.5843,1.2106091 19.92088,1.25 18.800781,1.25 Z m 0,1.5 h 1.601562 c 1.120099,0 1.575726,0.038958 1.767578,0.1367188 0.23528,0.1198846 0.425114,0.3097246 0.544922,0.5449218 C 21.211068,3.6235454 21.25,4.0791099 21.25,5.1992187 v 1.6015625 c 0,1.1201089 -0.03893,1.5756734 -0.136719,1.7675782 C 20.993473,8.8035566 20.803639,8.9933966 20.568359,9.1132813 20.376507,9.2110418 19.92088,9.25 18.800781,9.25 H 17.199219 C 16.07912,9.25 15.623493,9.2110418 15.431641,9.1132813 15.196361,8.9933966 15.006527,8.8035566 14.886719,8.5683594 14.788932,8.3764546 14.75,7.9208901 14.75,6.8007812 V 5.1992187 c 0,-1.1201088 0.03893,-1.5756733 0.136719,-1.7675781 C 15.006527,3.1964434 15.196361,3.0066034 15.431641,2.8867188 15.623493,2.7889582 16.07912,2.75 17.199219,2.75 Z"
     id="path2" />
  <path
     style="color:#000000;fill:#ffffff;stroke-linecap:round;stroke-linejoin:round;-inkscape-stroke:none"
     d="m 5.1992187,13.25 c -1.1201088,0 -1.7835313,-0.03938 -2.4472656,0.298828 -0.517462,0.263592 -0.93953,0.685806 -1.203125,1.203125 C 1.2106091,15.4157 1.25,16.07912 1.25,17.199219 v 1.601562 c 0,1.120099 -0.039391,1.783519 0.2988281,2.447266 0.263595,0.517319 0.685663,0.939533 1.203125,1.203125 C 3.4156874,22.789384 4.0791099,22.75 5.1992187,22.75 h 1.6015625 c 1.1201089,0 1.7835314,0.03938 2.4472657,-0.298828 C 9.7655089,22.18758 10.187577,21.765366 10.451172,21.248047 10.789391,20.5843 10.75,19.92088 10.75,18.800781 v -1.601562 c 0,-1.120099 0.03939,-1.783519 -0.298828,-2.447266 C 10.187577,14.234634 9.7655089,13.81242 9.2480469,13.548828 8.5843126,13.210616 7.9208901,13.25 6.8007812,13.25 Z m 0,1.5 h 1.6015625 c 1.1201089,0 1.5756734,0.03893 1.7675782,0.136719 0.2351972,0.119808 0.4250372,0.309642 0.5449219,0.544922 C 9.2110418,15.623493 9.25,16.07912 9.25,17.199219 v 1.601562 c 0,1.120099 -0.038958,1.575726 -0.1367187,1.767578 -0.1198847,0.23528 -0.3097247,0.425114 -0.5449219,0.544922 C 8.3764546,21.211068 7.9208901,21.25 6.8007812,21.25 H 5.1992187 C 4.0791099,21.25 3.6235454,21.211068 3.4316406,21.113281 3.1964434,20.993473 3.0066034,20.803639 2.8867188,20.568359 2.7889582,20.376507 2.75,19.92088 2.75,18.800781 v -1.601562 c 0,-1.120099 0.038958,-1.575726 0.1367188,-1.767578 0.1198846,-0.23528 0.3097246,-0.425114 0.5449218,-0.544922 C 3.6235454,14.788932 4.0791099,14.75 5.1992187,14.75 Z"
     id="path3" />
  <path
     style="color:#000000;fill:#ffffff;stroke-linecap:round;stroke-linejoin:round;-inkscape-stroke:none"
     d="m 17.199219,13.25 c -1.120099,0 -1.783515,-0.03941 -2.447266,0.298828 -0.517405,0.263584 -0.939541,0.68572 -1.203125,1.203125 C 13.210591,15.415704 13.25,16.07912 13.25,17.199219 v 1.601562 c 0,1.120099 -0.03941,1.783515 0.298828,2.447266 0.263584,0.517405 0.68572,0.939541 1.203125,1.203125 C 15.415704,22.789409 16.07912,22.75 17.199219,22.75 h 1.601562 c 1.120099,0 1.783515,0.03941 2.447266,-0.298828 0.517405,-0.263584 0.939541,-0.68572 1.203125,-1.203125 C 22.789409,20.584296 22.75,19.92088 22.75,18.800781 v -1.601562 c 0,-1.120099 0.03941,-1.783515 -0.298828,-2.447266 -0.263584,-0.517405 -0.68572,-0.939541 -1.203125,-1.203125 C 20.584296,13.210591 19.92088,13.25 18.800781,13.25 Z m 0,1.5 h 1.601562 c 1.120099,0 1.57573,0.03896 1.767578,0.136719 0.235194,0.119815 0.425107,0.309728 0.544922,0.544922 0.09776,0.191848 0.136719,0.647479 0.136719,1.767578 v 1.601562 c 0,1.120099 -0.03896,1.57573 -0.136719,1.767578 -0.119815,0.235194 -0.309728,0.425107 -0.544922,0.544922 C 20.376511,21.211044 19.92088,21.25 18.800781,21.25 h -1.601562 c -1.120099,0 -1.57573,-0.03896 -1.767578,-0.136719 C 15.196447,20.993466 15.006534,20.803553 14.886719,20.568359 14.788956,20.376511 14.75,19.92088 14.75,18.800781 v -1.601562 c 0,-1.120099 0.03896,-1.57573 0.136719,-1.767578 0.119815,-0.235194 0.309728,-0.425107 0.544922,-0.544922 C 15.623489,14.788956 16.07912,14.75 17.199219,14.75 Z"
     id="path4" />
</svg>
