<?xml version="1.0" encoding="UTF-8" standalone="no"?>
<svg
   width="24"
   height="24"
   viewBox="0 0 24 24"
   fill="none"
   version="1.1"
   id="svg1"
   sodipodi:docname="lock.svg"
   inkscape:version="1.3 (0e150ed6c4, 2023-07-21)"
   xmlns:inkscape="http://www.inkscape.org/namespaces/inkscape"
   xmlns:sodipodi="http://sodipodi.sourceforge.net/DTD/sodipodi-0.dtd"
   xmlns="http://www.w3.org/2000/svg"
   xmlns:svg="http://www.w3.org/2000/svg">
  <defs
     id="defs1" />
  <sodipodi:namedview
     id="namedview1"
     pagecolor="#505050"
     bordercolor="#eeeeee"
     borderopacity="1"
     inkscape:showpageshadow="0"
     inkscape:pageopacity="0"
     inkscape:pagecheckerboard="0"
     inkscape:deskcolor="#505050"
     showgrid="false"
     inkscape:zoom="47.375"
     inkscape:cx="11.989446"
     inkscape:cy="12"
     inkscape:window-width="2560"
     inkscape:window-height="1351"
     inkscape:window-x="-9"
     inkscape:window-y="-9"
     inkscape:window-maximized="1"
     inkscape:current-layer="svg1" />
  <path
     style="color:#000000;fill:#ffffff;stroke-linecap:round;-inkscape-stroke:none"
     d="M 11.800781,1.25 C 10.120583,1.25 9.1745038,1.2110259 8.296875,1.6582031 7.5913484,2.0176843 7.0176843,2.5913484 6.6582031,3.296875 6.2110202,4.174515 6.25,5.1206229 6.25,6.8007812 V 7.4121094 C 5.7474,7.4864231 5.2591523,7.5559203 4.84375,7.7675781 3.9500681,8.2229385 3.2229398,8.950113 2.7675781,9.84375 2.2114273,10.935335 2.25,12.160193 2.25,14.400391 v 1.199218 c 0,2.240198 -0.038573,3.465056 0.5175781,4.556641 0.4553645,0.893631 1.1824994,1.620816 2.0761719,2.076172 C 5.935306,22.788635 7.1601829,22.75 9.4003906,22.75 h 5.1992184 c 2.240198,0 3.46505,0.03861 4.556641,-0.517578 0.893621,-0.45536 1.620812,-1.182551 2.076172,-2.076172 C 21.788614,19.064659 21.75,17.839807 21.75,15.599609 v -1.199218 c 0,-2.240198 0.03861,-3.46505 -0.517578,-4.556641 C 20.777065,8.9501224 20.049881,8.2229426 19.15625,7.7675781 18.740834,7.5559283 18.252604,7.4864221 17.75,7.4121094 V 6.8007812 C 17.75,5.1206229 17.78901,4.1745205 17.341797,3.296875 16.982345,2.5913573 16.408676,2.0176904 15.703125,1.6582031 14.825473,1.2110628 13.879417,1.25 12.199219,1.25 Z m 0,1.5 h 0.398438 c 1.680198,0 2.416319,0.039275 2.822265,0.2460938 0.423448,0.2157521 0.766675,0.5589607 0.982422,0.9824218 C 16.210692,4.3843288 16.25,5.1206229 16.25,6.8007812 V 7.28125 C 15.731119,7.2704916 15.282008,7.25 14.599609,7.25 H 9.4003906 C 8.7179889,7.25 8.2688817,7.2704925 7.75,7.28125 V 6.8007812 C 7.75,5.1206229 7.7893174,4.3843343 7.9960937,3.9785156 8.211852,3.5550633 8.5550633,3.211852 8.9785156,2.9960938 9.3843456,2.7893117 10.120583,2.75 11.800781,2.75 Z m -2.4003904,6 h 5.1992184 c 2.240198,0 3.255187,0.037727 3.875,0.3535156 0.611568,0.3116348 1.110233,0.8102841 1.421875,1.4218754 0.315807,0.619807 0.353516,1.634802 0.353516,3.875 v 1.199218 c 0,2.240198 -0.03771,3.255193 -0.353516,3.875 -0.311639,0.611578 -0.810297,1.110236 -1.421875,1.421875 C 17.854802,21.212291 16.839807,21.25 14.599609,21.25 H 9.4003906 c -2.2402077,0 -3.2552777,-0.03773 -3.875,-0.353516 C 4.9137646,20.584841 4.4151504,20.086177 4.1035156,19.474609 3.7877273,18.854796 3.75,17.839807 3.75,15.599609 v -1.199218 c 0,-2.240198 0.037727,-3.255187 0.3535156,-3.875 C 4.4151532,9.9138091 4.913774,9.4151545 5.5253906,9.1035156 6.1451191,8.7877484 7.1601829,8.75 9.4003906,8.75 Z M 12,13.25 A 0.75,0.75 0 0 0 11.25,14 v 2 A 0.75,0.75 0 0 0 12,16.75 0.75,0.75 0 0 0 12.75,16 V 14 A 0.75,0.75 0 0 0 12,13.25 Z"
     id="path1" />
</svg>
