<?xml version="1.0" encoding="UTF-8" standalone="no"?>
<svg
   width="24"
   height="24"
   viewBox="0 0 24 24"
   fill="none"
   version="1.1"
   id="svg1"
   sodipodi:docname="log-out-2.svg"
   inkscape:version="1.3 (0e150ed6c4, 2023-07-21)"
   xmlns:inkscape="http://www.inkscape.org/namespaces/inkscape"
   xmlns:sodipodi="http://sodipodi.sourceforge.net/DTD/sodipodi-0.dtd"
   xmlns="http://www.w3.org/2000/svg"
   xmlns:svg="http://www.w3.org/2000/svg">
  <defs
     id="defs1" />
  <sodipodi:namedview
     id="namedview1"
     pagecolor="#ffffff"
     bordercolor="#000000"
     borderopacity="0.25"
     inkscape:showpageshadow="2"
     inkscape:pageopacity="0.0"
     inkscape:pagecheckerboard="0"
     inkscape:deskcolor="#d1d1d1"
     inkscape:zoom="47.375"
     inkscape:cx="11.989446"
     inkscape:cy="12"
     inkscape:window-width="2560"
     inkscape:window-height="1351"
     inkscape:window-x="-9"
     inkscape:window-y="-9"
     inkscape:window-maximized="1"
     inkscape:current-layer="svg1" />
  <path
     id="rect1"
     style="opacity:0.12;fill:#ffffff"
     d="m 6,2 h 4 c 2.216,0 4,1.784 4,4 v 12 c 0,2.216 -1.784,4 -4,4 H 6 C 3.784,22 2,20.216 2,18 V 6 C 2,3.784 3.784,2 6,2 Z" />
  <path
     d="M14 16.0005L13.9999 16.5V16.5C14 17.896 14 18.594 13.8276 19.1619C13.4398 20.4401 12.4396 21.4403 11.1614 21.8281C10.5935 22.0005 9.89549 22.0005 8.49951 22.0005H7.99997C6.13623 22.0005 5.20436 22.0005 4.46929 21.696C3.48916 21.29 2.71045 20.5113 2.30447 19.5312C2 18.7961 2 17.8643 2 16.0005L2 8.00049C2 6.13672 2 5.20484 2.30448 4.46975C2.71046 3.48964 3.48916 2.71095 4.46927 2.30497C5.20435 2.00049 6.13624 2.00049 8 2.00049L8.50049 2.00049C9.8956 2.00049 10.5931 2.00049 11.1608 2.17262C12.4395 2.56037 13.4401 3.56101 13.8279 4.83972C14 5.40734 14 6.10489 14 7.5V7.5L14 8.00049M9 12L22 12M22 12L18 8M22 12L18 16"
     stroke="white"
     stroke-width="1.5"
     stroke-linecap="round"
     stroke-linejoin="round"
     id="path1" />
</svg>
