<svg width="34" height="27" viewBox="0 0 34 27" fill="none" xmlns="http://www.w3.org/2000/svg">
<path d="M33.0399 3.68021C31.8574 4.20521 30.5899 4.55771 29.2574 4.71771C30.6174 3.90271 31.6624 2.61271 32.1524 1.07771C30.8824 1.83021 29.4699 2.37771 27.9724 2.67271C26.7724 1.39271 25.0624 0.595215 23.1699 0.595215C19.5349 0.595215 16.5874 3.54021 16.5874 7.17521C16.5874 7.69021 16.6474 8.19271 16.7599 8.67521C11.2899 8.40021 6.4424 5.78021 3.1949 1.79771C2.6274 2.77271 2.3049 3.90271 2.3049 5.10771C2.3049 7.39021 3.4649 9.40522 5.2324 10.5877C4.1524 10.5527 3.1374 10.2552 2.2499 9.76271C2.2499 9.79021 2.2499 9.81771 2.2499 9.84521C2.2499 13.0352 4.5199 15.6927 7.5274 16.3002C6.9774 16.4502 6.3949 16.5302 5.7949 16.5302C5.3699 16.5302 4.9574 16.4902 4.5549 16.4102C5.3949 19.0227 7.8249 20.9302 10.7024 20.9827C8.4524 22.7477 5.6149 23.7977 2.5299 23.7977C1.9974 23.7977 1.4749 23.7677 0.962402 23.7052C3.8724 25.5752 7.3324 26.6627 11.0499 26.6627C23.1549 26.6627 29.7749 16.6352 29.7749 7.94021C29.7749 7.65521 29.7674 7.36771 29.7574 7.08771C31.0424 6.16021 32.1574 5.00021 33.0399 3.68021Z" fill="white"/>
</svg>
