<?xml version="1.0" encoding="UTF-8" standalone="no"?>
<svg
   width="24"
   height="24"
   viewBox="0 0 24 24"
   fill="none"
   version="1.1"
   id="svg1"
   sodipodi:docname="phone.svg"
   inkscape:version="1.3 (0e150ed6c4, 2023-07-21)"
   xmlns:inkscape="http://www.inkscape.org/namespaces/inkscape"
   xmlns:sodipodi="http://sodipodi.sourceforge.net/DTD/sodipodi-0.dtd"
   xmlns="http://www.w3.org/2000/svg"
   xmlns:svg="http://www.w3.org/2000/svg">
  <defs
     id="defs1" />
  <sodipodi:namedview
     id="namedview1"
     pagecolor="#505050"
     bordercolor="#eeeeee"
     borderopacity="1"
     inkscape:showpageshadow="0"
     inkscape:pageopacity="0"
     inkscape:pagecheckerboard="0"
     inkscape:deskcolor="#505050"
     showgrid="false"
     inkscape:zoom="47.375"
     inkscape:cx="11.989446"
     inkscape:cy="12"
     inkscape:window-width="2560"
     inkscape:window-height="1351"
     inkscape:window-x="-9"
     inkscape:window-y="-9"
     inkscape:window-maximized="1"
     inkscape:current-layer="svg1" />
  <path
     style="color:#000000;fill:#ffffff;stroke-linecap:round;stroke-linejoin:round;-inkscape-stroke:none"
     d="M 5.0878906,1.25 C 4.0939416,1.25 3.4748316,1.223912 2.84375,1.5371094 2.1981977,1.8574877 1.7120813,2.4061772 1.4726562,3.0859375 1.2479382,3.7239342 1.3329126,4.3030109 1.4394531,5.171875 c 0.3751367,3.0593131 1.3000386,5.825241 2.7070313,8.208984 1.5152674,2.567135 3.5897356,4.688777 6.1152346,6.25586 2.462717,1.528131 5.353502,2.529784 8.566406,2.923828 0.868971,0.106496 1.447904,0.191544 2.085937,-0.0332 0.679648,-0.239445 1.228446,-0.725398 1.548829,-1.371094 C 22.77824,20.520864 22.75,19.895058 22.75,18.880859 c 0,-0.789499 0.01852,-1.270963 -0.177734,-1.791015 C 22.375272,16.567735 22.025055,16.11855 21.566406,15.800781 21.105477,15.481558 20.627396,15.3839 19.841797,15.1875 l -0.707031,-0.177734 c -1.084505,-0.271201 -1.688295,-0.430464 -2.361329,-0.416016 -0.563583,0.01199 -1.120293,0.122876 -1.644531,0.330078 -0.626084,0.247393 -1.118812,0.628858 -2.013672,1.298828 l -2.447265,1.833985 C 8.6788802,16.741212 7.027025,15.04976 5.75,13.027344 L 7.46875,10.984375 C 8.2397817,10.068053 8.6788222,9.5642053 8.96875,8.9082031 9.2112704,8.3594656 9.3480804,7.7694097 9.3710938,7.1699219 9.3986004,6.4532278 9.2260066,5.8083032 8.9355469,4.6464844 L 8.8125,4.1582031 C 8.6161,3.3725932 8.5184801,2.8945168 8.1992188,2.4335938 7.881474,1.9748629 7.4322653,1.6247351 6.9101562,1.4277344 6.3855631,1.2298034 5.8976698,1.25 5.0878906,1.25 Z m 0,1.5 c 0.8097792,0 1.1330295,0.020469 1.2910156,0.080078 0.2374102,0.089579 0.4433959,0.2503759 0.5878907,0.4589844 0.096138,0.1387964 0.1942254,0.4468134 0.390625,1.2324219 L 7.4804687,5.0097656 C 7.7709285,6.1715845 7.8873471,6.6897964 7.8710937,7.1132812 7.8553472,7.5234724 7.7616423,7.9272729 7.5957031,8.3027344 7.4243914,8.6903512 7.0932924,9.1012619 6.3222656,10.017578 L 4.9824219,11.609375 C 3.977512,9.6376561 3.2299835,7.455135 2.9277344,4.9902344 2.8211951,4.1213802 2.7998171,3.8307068 2.8867188,3.5839844 2.9678134,3.3537456 3.2930519,2.9893806 3.5117188,2.8808594 3.7208363,2.7770771 4.0939416,2.75 5.0878906,2.75 Z M 16.804687,16.091797 a 0.750075,0.750075 0 0 0 0.002,0 c 0.398365,-0.0086 0.878397,0.101848 1.96289,0.373047 l 0.708985,0.177734 c 0.785599,0.1964 1.093551,0.294448 1.232421,0.390625 0.208751,0.14463 0.369379,0.3504 0.458985,0.587891 0.06134,0.162546 0.08008,0.470266 0.08008,1.259765 0,1.014199 -0.02921,1.402609 -0.130859,1.607422 -0.108418,0.218503 -0.472774,0.543846 -0.703125,0.625 -0.246566,0.08685 -0.537223,0.06549 -1.40625,-0.04102 -2.5893,-0.317563 -4.867119,-1.124626 -6.910157,-2.214844 l 1.914063,-1.433594 c 0.894938,-0.670029 1.295501,-0.957109 1.666016,-1.103516 0.358761,-0.141797 0.739384,-0.220309 1.124999,-0.228515 z"
     id="path1" />
</svg>
