<?xml version="1.0" encoding="UTF-8" standalone="no"?>
<svg
   width="24"
   height="24"
   viewBox="0 0 24 24"
   fill="none"
   version="1.1"
   id="svg1"
   sodipodi:docname="question.svg"
   inkscape:version="1.3 (0e150ed6c4, 2023-07-21)"
   xmlns:inkscape="http://www.inkscape.org/namespaces/inkscape"
   xmlns:sodipodi="http://sodipodi.sourceforge.net/DTD/sodipodi-0.dtd"
   xmlns="http://www.w3.org/2000/svg"
   xmlns:svg="http://www.w3.org/2000/svg">
  <defs
     id="defs1" />
  <sodipodi:namedview
     id="namedview1"
     pagecolor="#505050"
     bordercolor="#eeeeee"
     borderopacity="1"
     inkscape:showpageshadow="0"
     inkscape:pageopacity="0"
     inkscape:pagecheckerboard="0"
     inkscape:deskcolor="#505050"
     showgrid="false"
     inkscape:zoom="47.375"
     inkscape:cx="11.989446"
     inkscape:cy="12"
     inkscape:window-width="2560"
     inkscape:window-height="1351"
     inkscape:window-x="-9"
     inkscape:window-y="-9"
     inkscape:window-maximized="1"
     inkscape:current-layer="svg1" />
  <path
     style="color:#000000;fill:#ffffff;stroke-linecap:round;stroke-linejoin:round;-inkscape-stroke:none"
     d="M 12,1.25 C 6.0718263,1.25 1.25,6.0718263 1.25,12 1.25,17.928127 6.0718217,22.75 12,22.75 17.928132,22.75 22.75,17.928132 22.75,12 22.75,6.0718217 17.928127,1.25 12,1.25 Z m 0,1.5 c 5.117462,0 9.25,4.1324893 9.25,9.25 0,5.117457 -4.132543,9.25 -9.25,9.25 C 6.8824893,21.25 2.75,17.117462 2.75,12 2.75,6.8824848 6.8824848,2.75 12,2.75 Z m 0,4.5 C 10.490083,7.25 9.25,8.4901154 9.25,10 v 0.5 A 0.75,0.75 0 0 0 10,11.25 0.75,0.75 0 0 0 10.75,10.5 V 10 c 0,-0.6992532 0.550719,-1.25 1.25,-1.25 0.699281,0 1.25,0.5507468 1.25,1.25 v 0.121094 c 0,0.363968 -0.145014,0.713374 -0.402344,0.970703 L 11.46875,12.46875 a 0.75,0.75 0 0 0 0,1.0625 0.75,0.75 0 0 0 1.0625,0 l 1.376953,-1.378906 C 14.446473,11.614074 14.75,10.882324 14.75,10.121094 V 10 C 14.75,8.4901154 13.509917,7.25 12,7.25 Z m 0,7.5 c -0.475394,0 -0.816532,0.318205 -1.027344,0.716797 A 0.75,0.75 0 0 0 10.75,16 0.75,0.75 0 0 0 10.972656,16.533203 C 11.183468,16.931795 11.524606,17.25 12,17.25 c 0.475394,0 0.816532,-0.318205 1.027344,-0.716797 A 0.75,0.75 0 0 0 13.25,16 a 0.75,0.75 0 0 0 -0.21875,-0.53125 0.75,0.75 0 0 0 -0.0059,-0.0039 C 12.814182,15.067485 12.474482,14.75 12,14.75 Z"
     id="path1" />
</svg>
