<?xml version="1.0" encoding="UTF-8" standalone="no"?>
<svg
   width="24"
   height="24"
   viewBox="0 0 24 24"
   fill="none"
   version="1.1"
   id="svg2"
   sodipodi:docname="settings.svg"
   inkscape:version="1.3 (0e150ed6c4, 2023-07-21)"
   xmlns:inkscape="http://www.inkscape.org/namespaces/inkscape"
   xmlns:sodipodi="http://sodipodi.sourceforge.net/DTD/sodipodi-0.dtd"
   xmlns="http://www.w3.org/2000/svg"
   xmlns:svg="http://www.w3.org/2000/svg">
  <defs
     id="defs2" />
  <sodipodi:namedview
     id="namedview2"
     pagecolor="#505050"
     bordercolor="#eeeeee"
     borderopacity="1"
     inkscape:showpageshadow="0"
     inkscape:pageopacity="0"
     inkscape:pagecheckerboard="0"
     inkscape:deskcolor="#505050"
     showgrid="false"
     inkscape:zoom="47.375"
     inkscape:cx="11.989446"
     inkscape:cy="12"
     inkscape:window-width="2560"
     inkscape:window-height="1351"
     inkscape:window-x="-9"
     inkscape:window-y="-9"
     inkscape:window-maximized="1"
     inkscape:current-layer="svg2" />
  <path
     style="color:#000000;fill:#ffffff;stroke-linecap:round;stroke-linejoin:round;-inkscape-stroke:none"
     d="M 8.6835938,1.1328125 C 8.0494478,1.0081974 7.3703505,1.1048943 6.7773437,1.4472656 L 5.4726562,2.2011719 c -1.1860169,0.6847445 -1.6900995,2.15422 -1.171875,3.421875 L 4.5800781,6.3066406 C 4.7401473,6.698191 4.6791449,7.1802216 4.4238281,7.6210937 4.1680164,8.0628246 3.7730473,8.3654651 3.359375,8.421875 L 2.6289063,8.5214844 C 1.2719621,8.7065191 0.25,9.8766321 0.25,11.246094 v 1.507812 c 0,1.369462 1.0219516,2.539615 2.3789063,2.72461 l 0.7304687,0.09961 c 0.4136297,0.05638 0.8086505,0.35901 1.0644531,0.800781 0.2552775,0.440766 0.316312,0.922912 0.15625,1.314453 l -0.2792969,0.683594 c -0.5182135,1.267669 -0.014115,2.737105 1.171875,3.421875 l 1.3046875,0.753906 c 1.1860025,0.684641 2.7100981,0.385312 3.5488283,-0.697265 l 0.453125,-0.583985 C 11.036919,20.938894 11.490805,20.75 12,20.75 c 0.509322,0 0.962946,0.188736 1.220703,0.521484 l 0.453125,0.583985 c 0.838696,1.082568 2.362818,1.382087 3.548828,0.697265 l 1.304688,-0.753906 c 1.185938,-0.68478 1.690005,-2.154208 1.171875,-3.421875 l -0.279297,-0.683594 c -0.160035,-0.391595 -0.09904,-0.873497 0.15625,-1.314453 0.255854,-0.441736 0.650878,-0.744403 1.064453,-0.800781 l 0.730469,-0.09961 C 22.728069,15.293523 23.75,14.123368 23.75,12.753906 v -1.507812 c 0,-1.3694619 -1.021941,-2.5395776 -2.378906,-2.7246096 L 20.640625,8.421875 C 20.227027,8.3654704 19.832029,8.0628495 19.576172,7.6210937 19.320878,7.1801745 19.259872,6.6981165 19.419922,6.3066406 l 0.279297,-0.6835937 c 0.518282,-1.2676617 0.01409,-2.7371232 -1.171875,-3.421875 L 17.222656,1.4472656 C 16.036672,0.76250054 14.512529,1.0619015 13.673828,2.1445313 L 13.220703,2.7285156 C 12.962967,3.0611993 12.50923,3.25 12,3.25 11.490755,3.25 11.036931,3.0611033 10.779297,2.7285156 L 10.326172,2.1445313 C 9.9068136,1.6032242 9.3177397,1.2574276 8.6835938,1.1328125 Z M 8.3945313,2.5996094 C 8.6812469,2.6559516 8.9474639,2.8131679 9.140625,3.0625 L 9.59375,3.6464844 C 10.189715,4.4158355 11.115246,4.75 12,4.75 c 0.884768,0 1.810187,-0.3341204 2.40625,-1.1035156 L 14.859375,3.0625 C 15.245673,2.5638513 15.926442,2.4307198 16.472656,2.7460938 L 17.777344,3.5 c 0.546237,0.3153871 0.77192,0.9727642 0.533203,1.5566406 L 18.03125,5.7382812 c -0.36775,0.8995029 -0.195458,1.8687861 0.248047,2.6347657 0.442542,0.764083 1.193155,1.403281 2.160156,1.5351562 l 0.728516,0.09961 C 21.793002,10.09304 22.25,10.615357 22.25,11.246094 v 1.507812 c 0,0.630737 -0.457009,1.153074 -1.082031,1.238282 l -0.728516,0.09961 c -0.967024,0.131822 -1.717611,0.771094 -2.160156,1.535156 -0.443505,0.766043 -0.615611,1.735362 -0.248047,2.634766 l 0.279297,0.68164 c 0.238669,0.583931 0.01306,1.241222 -0.533203,1.556641 l -1.304688,0.753906 C 15.926468,21.569284 15.245678,21.43613 14.859375,20.9375 L 14.40625,20.353516 C 13.810208,19.584065 12.884877,19.25 12,19.25 c -0.884804,0 -1.810273,0.334107 -2.40625,1.103516 L 9.140625,20.9375 C 8.7543163,21.436121 8.0736396,21.569265 7.5273437,21.253906 L 6.2226562,20.5 C 5.6763484,20.184571 5.4507474,19.527288 5.6894531,18.943359 L 5.96875,18.261719 C 6.3364475,17.362262 6.1643649,16.392986 5.7207031,15.626953 5.2781865,14.862726 4.5275958,14.223615 3.5605469,14.091797 L 2.8320313,13.992188 C 2.2070479,13.906983 1.75,13.384643 1.75,12.753906 v -1.507812 c 0,-0.630737 0.4570374,-1.153056 1.0820313,-1.238281 l 0.7285156,-0.09961 C 4.5275932,9.7763332 5.2781756,9.1371949 5.7207031,8.3730469 6.1643457,7.6069802 6.3364603,6.6377496 5.96875,5.7382812 L 5.6894531,5.0566406 C 5.4507584,4.4727575 5.676375,3.8153944 6.2226562,3.5 L 7.5273437,2.7460938 C 7.8004861,2.5883955 8.1078156,2.5432671 8.3945313,2.5996094 Z"
     id="path1" />
  <path
     style="color:#000000;fill:#ffffff;stroke-linecap:round;stroke-linejoin:round;-inkscape-stroke:none"
     d="m 12,8.25 c -2.062203,0 -3.75,1.687797 -3.75,3.75 0,2.062203 1.687797,3.75 3.75,3.75 2.062203,0 3.75,-1.687797 3.75,-3.75 0,-2.062203 -1.687797,-3.75 -3.75,-3.75 z m 0,1.5 c 1.251594,0 2.25,0.998406 2.25,2.25 0,1.251594 -0.998406,2.25 -2.25,2.25 -1.251594,0 -2.25,-0.998406 -2.25,-2.25 0,-1.251594 0.998406,-2.25 2.25,-2.25 z"
     id="path2" />
</svg>
