<?xml version="1.0" encoding="UTF-8" standalone="no"?>
<svg
   width="24"
   height="24"
   viewBox="0 0 24 24"
   fill="none"
   version="1.1"
   id="svg1"
   sodipodi:docname="smile.svg"
   inkscape:version="1.3 (0e150ed6c4, 2023-07-21)"
   xmlns:inkscape="http://www.inkscape.org/namespaces/inkscape"
   xmlns:sodipodi="http://sodipodi.sourceforge.net/DTD/sodipodi-0.dtd"
   xmlns="http://www.w3.org/2000/svg"
   xmlns:svg="http://www.w3.org/2000/svg">
  <defs
     id="defs1" />
  <sodipodi:namedview
     id="namedview1"
     pagecolor="#505050"
     bordercolor="#eeeeee"
     borderopacity="1"
     inkscape:showpageshadow="0"
     inkscape:pageopacity="0"
     inkscape:pagecheckerboard="0"
     inkscape:deskcolor="#505050"
     showgrid="false"
     inkscape:zoom="47.375"
     inkscape:cx="11.989446"
     inkscape:cy="12"
     inkscape:window-width="2560"
     inkscape:window-height="1351"
     inkscape:window-x="-9"
     inkscape:window-y="-9"
     inkscape:window-maximized="1"
     inkscape:current-layer="svg1" />
  <path
     style="color:#000000;fill:#ffffff;stroke-linecap:round;stroke-linejoin:round;-inkscape-stroke:none"
     d="M 12,1.25 C 6.0718263,1.25 1.25,6.0718263 1.25,12 1.25,17.928127 6.0718217,22.75 12,22.75 17.928132,22.75 22.75,17.928132 22.75,12 22.75,6.0718217 17.928127,1.25 12,1.25 Z m 0,1.5 c 5.117462,0 9.25,4.1324893 9.25,9.25 0,5.117457 -4.132543,9.25 -9.25,9.25 C 6.8824893,21.25 2.75,17.117462 2.75,12 2.75,6.8824848 6.8824848,2.75 12,2.75 Z m -3,6 C 8.5246699,8.75 8.1834886,9.0682095 7.9726562,9.4667969 A 0.75,0.75 0 0 0 7.75,10 0.75,0.75 0 0 0 7.9726562,10.533203 C 8.1834719,10.931791 8.5246194,11.25 9,11.25 c 0.4753806,0 0.8165281,-0.318209 1.027344,-0.716797 A 0.75,0.75 0 0 0 10.25,10 0.75,0.75 0 0 0 10.193359,9.7128906 0.75,0.75 0 0 0 10.025391,9.4648438 C 9.8141608,9.067489 9.4744181,8.75 9,8.75 Z m 6,0 c -0.475343,0 -0.816516,0.3182063 -1.027344,0.7167969 A 0.75,0.75 0 0 0 13.75,10 0.75,0.75 0 0 0 13.972656,10.533203 C 14.183468,10.931795 14.524606,11.25 15,11.25 c 0.475394,0 0.816532,-0.318205 1.027344,-0.716797 A 0.75,0.75 0 0 0 16.25,10 0.75,0.75 0 0 0 16.03125,9.46875 a 0.75,0.75 0 0 0 -0.0059,-0.00391 C 15.814165,9.0674858 15.474431,8.75 15,8.75 Z m 0.894531,5.507813 a 0.75,0.75 0 0 0 -0.49414,0.291015 C 14.62449,15.581775 13.395671,16.25 12,16.25 10.604329,16.25 9.3755088,15.581762 8.5996094,14.548828 A 0.75,0.75 0 0 0 7.5488281,14.400391 0.75,0.75 0 0 0 7.4003906,15.451172 C 8.4489094,16.847036 10.124075,17.75 12,17.75 c 1.875925,0 3.551112,-0.902977 4.599609,-2.298828 a 0.75,0.75 0 0 0 -0.148437,-1.050781 0.75,0.75 0 0 0 -0.556641,-0.142578 z"
     id="path1" />
</svg>
