<?xml version="1.0" encoding="UTF-8" standalone="no"?>
<svg
   width="24"
   height="24"
   viewBox="0 0 24 24"
   fill="none"
   version="1.1"
   id="svg1"
   sodipodi:docname="star.svg"
   inkscape:version="1.3 (0e150ed6c4, 2023-07-21)"
   xmlns:inkscape="http://www.inkscape.org/namespaces/inkscape"
   xmlns:sodipodi="http://sodipodi.sourceforge.net/DTD/sodipodi-0.dtd"
   xmlns="http://www.w3.org/2000/svg"
   xmlns:svg="http://www.w3.org/2000/svg">
  <defs
     id="defs1" />
  <sodipodi:namedview
     id="namedview1"
     pagecolor="#505050"
     bordercolor="#eeeeee"
     borderopacity="1"
     inkscape:showpageshadow="0"
     inkscape:pageopacity="0"
     inkscape:pagecheckerboard="0"
     inkscape:deskcolor="#505050"
     showgrid="false"
     inkscape:zoom="47.375"
     inkscape:cx="11.989446"
     inkscape:cy="12"
     inkscape:window-width="2560"
     inkscape:window-height="1351"
     inkscape:window-x="-9"
     inkscape:window-y="-9"
     inkscape:window-maximized="1"
     inkscape:current-layer="svg1" />
  <path
     style="color:#000000;fill:#ffffff;stroke-linecap:round;stroke-linejoin:round;-inkscape-stroke:none"
     d="m 12,0.72265625 c -0.402881,3e-7 -0.805078,0.0888745 -1.177734,0.265625 C 10.302701,1.234693 9.9550169,1.6702413 9.6152344,2.21875 9.2754518,2.7672587 8.9274251,3.4674605 8.4667969,4.3886719 l -0.359375,0.71875 C 7.8229829,5.6762897 7.7022324,5.8907208 7.6015625,5.9960937 7.4864305,6.1165954 7.3481456,6.2129479 7.1953125,6.2792969 7.0616439,6.3373306 6.8196289,6.3770257 6.1875,6.4472656 L 5.8613281,6.4824219 C 4.7572192,6.6051018 3.9209948,6.6971063 3.2480469,6.8339844 2.575099,6.9708625 2.017683,7.1495568 1.5957031,7.5800781 0.99990562,8.1879532 0.71914666,9.0396926 0.8359375,9.8828125 0.91865575,10.479955 1.2595609,10.956171 1.71875,11.466797 c 0.4591891,0.510625 1.0765641,1.079991 1.890625,1.835937 l 0.34375,0.320313 c 0.5557739,0.516113 0.761316,0.731763 0.8378906,0.880859 0.088753,0.172829 0.1366341,0.362422 0.1386719,0.556641 0.00174,0.165164 -0.081538,0.458594 -0.3359375,1.183594 -0.4151947,1.183299 -0.7318331,2.07602 -0.9199219,2.810546 -0.1880888,0.734527 -0.2813881,1.350816 -0.044922,1.953125 0.3236478,0.824438 1.0262199,1.442817 1.8847656,1.660157 0.6232623,0.157703 1.2206774,-0.0082 1.9179687,-0.283203 0.6972913,-0.27504 1.5318458,-0.695596 2.6367184,-1.248047 l 0.835938,-0.416016 a 0.750075,0.750075 0 0 0 0,-0.002 c 0.524833,-0.262417 0.731524,-0.351883 0.865234,-0.376953 0.1523,-0.02856 0.308638,-0.02856 0.460938,0 0.133742,0.02508 0.340552,0.114562 0.865234,0.376953 a 0.750075,0.750075 0 0 0 0,0.002 l 0.835938,0.416016 c 1.104855,0.552452 1.939419,0.973007 2.636718,1.248047 0.6973,0.27504 1.294702,0.440901 1.917969,0.283203 0.858515,-0.217342 1.561089,-0.835716 1.884766,-1.660157 0.236467,-0.602312 0.143171,-1.218599 -0.04492,-1.953125 -0.188093,-0.734525 -0.504722,-1.627248 -0.919922,-2.810546 -0.2544,-0.725 -0.337676,-1.01843 -0.335938,-1.183594 0.0021,-0.194282 0.04992,-0.383774 0.138672,-0.556641 0.07656,-0.149062 0.282157,-0.364728 0.837891,-0.880859 l 0.34375,-0.320313 c 0.814043,-0.755943 1.431435,-1.325313 1.890625,-1.835937 0.45919,-0.510624 0.800101,-0.986826 0.882812,-1.5839845 0.116798,-0.8431674 -0.16402,-1.6948843 -0.759765,-2.3027344 a 0.750075,0.750075 0 0 0 -0.002,0 C 21.98036,7.1495698 21.424898,6.9708624 20.751953,6.8339844 20.079008,6.6971063 19.242771,6.6051018 18.138672,6.4824219 L 17.8125,6.4472656 C 17.180396,6.3770252 16.938175,6.3372686 16.804687,6.2792969 16.651804,6.2129369 16.513379,6.1164485 16.398437,5.9960937 16.297787,5.8907609 16.176979,5.6762929 15.892578,5.1074219 l -0.359375,-0.71875 C 15.072604,3.467458 14.724542,2.7672647 14.384766,2.21875 14.044989,1.6702353 13.697302,1.2346944 13.177734,0.98828125 12.805056,0.81155251 12.402881,0.72265595 12,0.72265625 Z M 11.464844,2.3417969 c 0.339487,-0.1610186 0.730671,-0.161062 1.070312,0 0.103732,0.049197 0.299524,0.2213644 0.576172,0.6679687 0.276648,0.4466044 0.619479,1.129567 1.080078,2.0507813 l 0.359375,0.71875 c 0.283802,0.5677358 0.448482,0.9221016 0.763672,1.2519531 0.253258,0.2651849 0.556262,0.4770671 0.892578,0.6230469 0.418913,0.181928 0.807358,0.2129636 1.439453,0.2832031 l 0.326172,0.037109 c 1.104099,0.1226799 1.924565,0.2150533 2.480469,0.328125 0.555904,0.1130717 0.801891,0.2495538 0.878906,0.328125 0.271454,0.276969 0.398906,0.6628036 0.345703,1.046875 -0.01509,0.1089311 -0.132385,0.3633336 -0.511718,0.7851566 -0.379334,0.421822 -0.980867,0.986232 -1.794922,1.742187 l -0.345703,0.31836 c -0.555666,0.516067 -0.905749,0.818585 -1.150391,1.294921 -0.195052,0.379933 -0.300151,0.799446 -0.304688,1.226563 -0.0057,0.537835 0.167476,0.970313 0.421875,1.695312 0.4152,1.183299 0.721653,2.065778 0.88086,2.6875 0.159207,0.621723 0.136695,0.941764 0.101562,1.03125 -0.147523,0.375759 -0.466138,0.656802 -0.857422,0.75586 -0.09723,0.0246 -0.410348,0.0072 -0.998046,-0.22461 -0.587699,-0.231809 -1.412736,-0.640913 -2.517578,-1.193359 l -0.835938,-0.417969 c -0.524717,-0.262408 -0.841155,-0.433595 -1.257812,-0.511719 -0.3351,-0.06284 -0.680526,-0.06284 -1.015625,0 -0.41669,0.07813 -0.733048,0.249337 -1.257813,0.511719 l -0.8359375,0.417969 c -1.1048648,0.552447 -1.9298832,0.961549 -2.5175781,1.193359 -0.5876949,0.231811 -0.9008399,0.249206 -0.9980469,0.22461 -0.391313,-0.09906 -0.7099102,-0.380099 -0.8574219,-0.75586 -0.035133,-0.08949 -0.057641,-0.409527 0.1015625,-1.03125 0.1592034,-0.621722 0.465665,-1.504201 0.8808594,-2.6875 0.2543997,-0.724999 0.4275364,-1.157477 0.421875,-1.695312 C 6.4252053,14.617741 6.3201266,14.19833 6.125,13.818359 5.880375,13.342057 5.5303544,13.039524 4.9746094,12.523438 l -0.34375,-0.31836 h -0.00195 C 3.8155311,11.449765 3.2131019,10.884475 2.8339844,10.462891 2.4546543,10.04107 2.3373573,9.7866809 2.3222656,9.6777344 2.2690566,9.2936155 2.3965271,8.9078035 2.6679688,8.6308594 2.7449684,8.5523012 2.9909691,8.415806 3.546875,8.3027344 4.1027809,8.1896627 4.9232349,8.0972893 6.0273437,7.9746094 L 6.3535156,7.9375 C 6.9856454,7.86726 7.3740779,7.8361629 7.7929687,7.6542969 8.1292551,7.508306 8.4323192,7.296288 8.6855469,7.03125 9.0009966,6.7010634 9.1647782,6.3481679 9.4492188,5.7792969 l 0.359375,-0.71875 C 10.269225,4.1393301 10.613968,3.4563709 10.890625,3.0097656 11.167282,2.5631603 11.361109,2.3909948 11.464844,2.3417969 Z"
     id="path1" />
</svg>
