<?xml version="1.0" encoding="UTF-8" standalone="no"?>
<svg
   width="24"
   height="24"
   viewBox="0 0 24 24"
   fill="none"
   version="1.1"
   id="svg1"
   sodipodi:docname="support.svg"
   inkscape:version="1.3 (0e150ed6c4, 2023-07-21)"
   xmlns:inkscape="http://www.inkscape.org/namespaces/inkscape"
   xmlns:sodipodi="http://sodipodi.sourceforge.net/DTD/sodipodi-0.dtd"
   xmlns="http://www.w3.org/2000/svg"
   xmlns:svg="http://www.w3.org/2000/svg">
  <defs
     id="defs1" />
  <sodipodi:namedview
     id="namedview1"
     pagecolor="#505050"
     bordercolor="#eeeeee"
     borderopacity="1"
     inkscape:showpageshadow="0"
     inkscape:pageopacity="0"
     inkscape:pagecheckerboard="0"
     inkscape:deskcolor="#505050"
     showgrid="false"
     inkscape:zoom="47.375"
     inkscape:cx="11.989446"
     inkscape:cy="12"
     inkscape:window-width="2560"
     inkscape:window-height="1351"
     inkscape:window-x="-9"
     inkscape:window-y="-9"
     inkscape:window-maximized="1"
     inkscape:current-layer="svg1" />
  <path
     style="color:#000000;fill:#ffffff;stroke-linecap:round;stroke-linejoin:round;-inkscape-stroke:none"
     d="M 12,1.25 C 6.0718263,1.25 1.25,6.0718263 1.25,12 c 0,1.609122 0.3544352,3.139253 0.9902344,4.511719 0.4744299,1.024177 0.7911134,1.615023 0.5429687,2.478515 -0.1008927,0.351144 -0.5495052,0.923363 -0.6210937,1.794922 -0.091829,1.118068 0.9246293,2.055539 2.03125,1.871094 0.8256741,-0.137586 1.397793,-0.514726 1.8476562,-0.728516 0.4498632,-0.21379 0.7340836,-0.319631 1.3125,-0.183593 0.017227,0.0041 0.5135938,0.167902 1.3710938,0.474609 C 9.7179836,22.574047 10.78938,22.75 12,22.75 17.928132,22.75 22.75,17.928132 22.75,12 22.75,6.0718217 17.928127,1.25 12,1.25 Z m 0,1.5 c 5.117462,0 9.25,4.1324893 9.25,9.25 0,5.117457 -4.132543,9.25 -9.25,9.25 -1.068177,0 -1.95032,-0.149657 -2.7714844,-0.443359 -0.8574583,-0.306693 -1.2194573,-0.448137 -1.53125,-0.521485 -0.939502,-0.220961 -1.7292529,0.0155 -2.3007812,0.28711 -0.5715283,0.271609 -0.9666442,0.523102 -1.4492188,0.603515 -0.178518,0.02975 -0.3058265,-0.08725 -0.2910156,-0.267578 0.021671,-0.26384 0.3559524,-0.764651 0.5683594,-1.503906 C 4.6278241,18.001192 4.0609116,16.874434 3.6015625,15.882813 3.0548629,14.702681 2.75,13.388875 2.75,12 2.75,6.8824848 6.8824848,2.75 12,2.75 Z m 3.5,6 A 0.75,0.75 0 0 0 14.96875,8.96875 L 11,12.9375 9.53125,11.46875 a 0.75,0.75 0 0 0 -1.0625,0 0.75,0.75 0 0 0 0,1.0625 l 2,2 a 0.750075,0.750075 0 0 0 1.0625,0 l 4.5,-4.5 a 0.75,0.75 0 0 0 0,-1.0625 A 0.75,0.75 0 0 0 15.5,8.75 Z"
     id="path1" />
</svg>
