<?xml version="1.0" encoding="UTF-8" standalone="no"?>
<svg
   width="24"
   height="24"
   viewBox="0 0 24 24"
   fill="none"
   version="1.1"
   id="svg2"
   sodipodi:docname="upload-image.svg"
   inkscape:version="1.3 (0e150ed6c4, 2023-07-21)"
   xmlns:inkscape="http://www.inkscape.org/namespaces/inkscape"
   xmlns:sodipodi="http://sodipodi.sourceforge.net/DTD/sodipodi-0.dtd"
   xmlns="http://www.w3.org/2000/svg"
   xmlns:svg="http://www.w3.org/2000/svg">
  <defs
     id="defs2" />
  <sodipodi:namedview
     id="namedview2"
     pagecolor="#505050"
     bordercolor="#eeeeee"
     borderopacity="1"
     inkscape:showpageshadow="0"
     inkscape:pageopacity="0"
     inkscape:pagecheckerboard="0"
     inkscape:deskcolor="#505050"
     showgrid="false"
     inkscape:zoom="47.375"
     inkscape:cx="11.989446"
     inkscape:cy="12"
     inkscape:window-width="2560"
     inkscape:window-height="1351"
     inkscape:window-x="-9"
     inkscape:window-y="-9"
     inkscape:window-maximized="1"
     inkscape:current-layer="svg2" />
  <path
     opacity="0.12"
     d="M14.4861 17.3264L15.5492 16.2633C16.3416 15.4709 16.7378 15.0747 17.1945 14.9263C17.5961 14.7958 18.0288 14.7958 18.4305 14.9263C18.8872 15.0747 19.2832 15.4707 20.0752 16.2627L21.6746 17.8621C21.5893 18.1741 21.4818 18.4576 21.346 18.7239C20.7708 19.8529 19.8529 20.7708 18.7239 21.346C18.6755 21.3707 18.6266 21.3944 18.577 21.4173C17.3114 22 15.6336 22 12.4 22H12.4H11.6C8.23968 22 6.55952 22 5.27605 21.346C4.14708 20.7708 3.22919 19.8529 2.65395 18.7239C2.61112 18.6399 2.5711 18.5541 2.53369 18.4663L6.77043 14.2296C7.55196 13.448 7.94272 13.0573 8.39427 12.9083C8.79154 12.7773 9.2199 12.7741 9.61906 12.8993C10.0728 13.0415 10.4693 13.4265 11.2622 14.1964L14.4861 17.3264Z"
     fill="#2649FF"
     id="path1" />
  <path
     style="color:#000000;fill:#2649ff;stroke-linecap:round;stroke-linejoin:round;-inkscape-stroke:none"
     d="M 11.5,1.25 C 8.2340033,1.25 6.4999117,1.2123853 5.0136719,1.9453125 3.6811043,2.602462 2.602462,3.6811043 1.9453125,5.0136719 1.2123853,6.4999117 1.25,8.2340033 1.25,11.5 v 0.900391 c 0,2.909646 0.065675,4.557454 0.5605469,5.955078 a 0.75,0.75 0 0 0 0.1582031,0.675781 0.75,0.75 0 0 0 0.00977,0.0039 c 0.00426,0.0085 0.0035,0.02084 0.00781,0.0293 0.6470989,1.270035 1.6791803,2.302151 2.9492188,2.949219 C 6.4549292,22.787882 8.2393027,22.75 11.599609,22.75 H 12.5 c 3.265997,0 5.000104,0.03767 6.486328,-0.695313 1.33261,-0.65708 2.411279,-1.735749 3.068359,-3.068359 C 22.787672,17.500104 22.75,15.765997 22.75,12.5 V 12 A 0.75,0.75 0 0 0 22,11.25 0.75,0.75 0 0 0 21.25,12 v 0.5 c 0,1.660732 -0.01414,2.861793 -0.08984,3.787109 l -0.554687,-0.554687 c -0.791999,-0.791999 -1.2349,-1.289325 -1.94336,-1.519531 -0.552186,-0.179433 -1.146996,-0.1794 -1.699218,0 -0.708588,0.230248 -1.151049,0.727121 -1.94336,1.519531 -0.307252,0.307201 -0.350176,0.350188 -0.541015,0.541015 l -2.69336,-2.615234 C 10.992169,12.888315 10.547134,12.404036 9.84375,12.183594 9.2949044,12.011444 8.7062538,12.015237 8.1601563,12.195313 7.4603866,12.426219 7.0217851,12.917598 6.2402344,13.699219 L 2.9921875,16.945312 C 2.8263561,15.920672 2.75,14.622935 2.75,12.400391 V 11.5 C 2.75,8.2340033 2.786424,6.7009521 3.2910156,5.6777344 3.8022249,4.6411043 4.6411043,3.8022249 5.6777344,3.2910156 6.7009521,2.786424 8.2340033,2.75 11.5,2.75 H 12 A 0.75,0.75 0 0 0 12.75,2 0.75,0.75 0 0 0 12,1.25 Z m 6.5,1 a 0.75,0.75 0 0 0 -0.53125,0.21875 l -2.5,2.5 a 0.75,0.75 0 0 0 0,1.0625 0.75,0.75 0 0 0 1.0625,0 L 17.25,4.8125 V 9 A 0.75,0.75 0 0 0 18,9.75 0.75,0.75 0 0 0 18.75,9 V 4.8125 l 1.21875,1.21875 a 0.75,0.75 0 0 0 1.0625,0 0.75,0.75 0 0 0 0,-1.0625 l -2.5,-2.5 A 0.75,0.75 0 0 0 18,2.25 Z M 9.3945313,13.615234 c 0.2040755,0.06396 0.5526922,0.34923 1.3457027,1.119141 l 3.214844,3.123047 0.0078,0.0078 3.11914,3.119141 C 16.074591,21.168617 14.787666,21.25 12.5,21.25 h -0.900391 c -3.3603063,0 -4.9348664,-0.03848 -5.9824215,-0.572266 -0.9109958,-0.46414 -1.6379599,-1.204053 -2.1445312,-2.08789 l 3.8281249,-3.830078 c 0.7815078,-0.781578 1.1247956,-1.071579 1.3281251,-1.138672 0.2484416,-0.08192 0.5161513,-0.08411 0.765625,-0.0059 z m 8.0312497,2.023438 c 0.251177,-0.0816 0.522425,-0.08157 0.773438,0 0.204939,0.06659 0.553704,0.362298 1.345703,1.154297 l 1.230469,1.232422 c -0.03154,0.07908 -0.03021,0.223484 -0.06641,0.296875 -0.446092,0.904709 -1.174252,1.615785 -2.033203,2.132812 l -3.128906,-3.128906 c 0.1903,-0.190288 0.23041,-0.23046 0.533203,-0.533203 0.792288,-0.792388 1.140891,-1.087746 1.345703,-1.154297 z"
     id="path2" />
</svg>
