<?xml version="1.0" encoding="UTF-8" standalone="no"?>
<svg
   width="24"
   height="24"
   viewBox="0 0 24 24"
   fill="none"
   version="1.1"
   id="svg2"
   sodipodi:docname="user.svg"
   inkscape:version="1.3 (0e150ed6c4, 2023-07-21)"
   xmlns:inkscape="http://www.inkscape.org/namespaces/inkscape"
   xmlns:sodipodi="http://sodipodi.sourceforge.net/DTD/sodipodi-0.dtd"
   xmlns="http://www.w3.org/2000/svg"
   xmlns:svg="http://www.w3.org/2000/svg">
  <defs
     id="defs2" />
  <sodipodi:namedview
     id="namedview2"
     pagecolor="#505050"
     bordercolor="#eeeeee"
     borderopacity="1"
     inkscape:showpageshadow="0"
     inkscape:pageopacity="0"
     inkscape:pagecheckerboard="0"
     inkscape:deskcolor="#505050"
     showgrid="false"
     inkscape:zoom="47.375"
     inkscape:cx="11.989446"
     inkscape:cy="12"
     inkscape:window-width="2560"
     inkscape:window-height="1351"
     inkscape:window-x="-9"
     inkscape:window-y="-9"
     inkscape:window-maximized="1"
     inkscape:current-layer="svg2" />
  <path
     style="color:#000000;fill:#ffffff;stroke-linecap:round;stroke-linejoin:round;-inkscape-stroke:none"
     d="M 8.8007813,13.25 C 5.744491,13.25 3.25,15.74446 3.25,18.800781 3.25,20.973412 5.0265774,22.75 7.1992187,22.75 H 16.800781 C 18.973415,22.75 20.75,20.973415 20.75,18.800781 20.75,15.744466 18.255534,13.25 15.199219,13.25 Z m 0,1.5 H 15.199219 C 17.444898,14.75 19.25,16.555102 19.25,18.800781 19.25,20.162744 18.162744,21.25 16.800781,21.25 H 7.1992187 C 5.8372436,21.25 4.75,20.162747 4.75,18.800781 4.75,16.555108 6.5551368,14.75 8.8007813,14.75 Z"
     id="path1" />
  <path
     style="color:#000000;fill:#ffffff;stroke-linecap:round;stroke-linejoin:round;-inkscape-stroke:none"
     d="M 12,1.25 C 9.3855329,1.25 7.25,3.3855329 7.25,6 c 0,2.6144671 2.1355329,4.75 4.75,4.75 2.614434,0 4.75,-2.1355239 4.75,-4.75 0,-2.6144761 -2.135566,-4.75 -4.75,-4.75 z m 0,1.5 c 1.803761,0 3.25,1.4462005 3.25,3.25 0,1.8037995 -1.446239,3.25 -3.25,3.25 C 10.196191,9.25 8.75,7.8038085 8.75,6 8.75,4.1961915 10.196191,2.75 12,2.75 Z"
     id="path2" />
</svg>
